<svg xmlns="http://www.w3.org/2000/svg" viewBox="0 0 1200 600" role="img" aria-label="Mustang side profile template">
  <defs>
    <linearGradient id="bg" x1="0" x2="1" y1="0" y2="1">
      <stop offset="0%" stop-color="#101726"/>
      <stop offset="100%" stop-color="#1f2a43"/>
    </linearGradient>
    <linearGradient id="carPaint" x1="0" x2="1" y1="0" y2="0">
      <stop offset="0%" stop-color="#c7d0df"/>
      <stop offset="50%" stop-color="#f2f5fb"/>
      <stop offset="100%" stop-color="#b6c1d2"/>
    </linearGradient>
  </defs>
  <rect x="0" y="0" width="1200" height="600" fill="url(#bg)"/>
  <g opacity="0.18" stroke="#7dff5a" stroke-width="2" fill="none">
    <path d="M0 470 H1200"/>
    <path d="M0 520 H1200"/>
  </g>

  <g transform="translate(110 125)">
    <path d="M80 280 C130 240, 230 220, 360 220 H700 C780 220, 840 205, 890 170 L955 125 C980 105, 1005 95, 1040 95 H1110 C1140 95, 1160 115, 1160 142 V180 C1160 200, 1143 217, 1120 220 L1070 226 C1055 228, 1042 238, 1038 251 C1025 292, 985 320, 930 320 H220 C165 320, 125 292, 112 251 C108 238, 95 228, 80 226 L45 220 C22 217, 5 200, 5 180 V168 C5 150, 18 135, 36 129 Z" fill="url(#carPaint)"/>
    <path d="M322 225 L420 138 C444 117, 474 105, 505 105 H730 C770 105, 803 120, 827 147 L900 225 Z" fill="#dbe3f0"/>
    <path d="M370 220 L445 145 H520 V220 Z" fill="#1d2434" opacity="0.9"/>
    <path d="M545 220 V130 H720 C748 130, 771 140, 790 160 L845 220 Z" fill="#1d2434" opacity="0.9"/>
    <rect x="310" y="244" width="590" height="54" rx="18" fill="#121824" opacity="0.22"/>

    <g transform="translate(240 320)">
      <circle r="82" fill="#131722"/>
      <circle r="54" fill="#2f3648"/>
      <circle r="22" fill="#a6b0c4"/>
    </g>
    <g transform="translate(860 320)">
      <circle r="82" fill="#131722"/>
      <circle r="54" fill="#2f3648"/>
      <circle r="22" fill="#a6b0c4"/>
    </g>

    <rect x="560" y="242" width="2" height="56" fill="#8f99ab" opacity="0.7"/>
    <path d="M1000 192 H1095" stroke="#eaf0fb" stroke-width="8" stroke-linecap="round"/>
    <path d="M74 196 H146" stroke="#eaf0fb" stroke-width="8" stroke-linecap="round"/>
  </g>

  <text x="50%" y="560" fill="#aab3c5" font-family="Arial, Helvetica, sans-serif" font-size="22" text-anchor="middle">Mustang Preview Template</text>
</svg>
