<?xml version="1.0" encoding="UTF-8"?>
<svg xmlns="http://www.w3.org/2000/svg"
     width="1024"
     height="1536"
     viewBox="0 0 1024 1536">
  <path d="M 0 922 L 0 928 L 7 928 L 8 929 L 11 929 L 11 927 L 10 927 L 7 924 L 7 923 L 2 923 L 1 922 Z" fill="black"/>
  <path d="M 299 27 L 297 27 L 297 31 L 296 32 L 294 32 L 294 38 L 296 38 L 296 34 L 297 33 L 300 33 L 301 34 L 303 34 L 303 31 L 302 30 L 302 29 L 301 29 Z" fill="black"/>
  <path d="M 300 16 L 300 18 L 301 19 L 301 20 L 305 24 L 307 24 L 307 22 L 303 18 L 303 16 Z" fill="black"/>
  <path d="M 360 10 L 360 12 L 362 12 L 363 13 L 363 17 L 365 17 L 365 16 L 366 15 L 368 15 L 368 13 L 367 12 L 363 12 L 362 11 L 362 10 Z" fill="black"/>
  <path d="M 300 2 L 300 4 L 301 5 L 301 11 L 302 12 L 303 12 L 304 13 L 304 14 L 309 14 L 309 12 L 308 12 L 305 9 L 305 4 L 303 2 Z" fill="black"/>
  <path d="M 356 0 L 356 2 L 361 2 L 362 1 L 362 0 Z" fill="black"/>
  <path d="M 336 0 L 336 1 L 337 2 L 337 3 L 341 3 L 341 0 Z" fill="black"/>
  <path d="M 313 0 L 313 1 L 314 2 L 318 2 L 319 3 L 319 4 L 320 5 L 323 5 L 323 0 Z" fill="black"/>
  <path d="M 288 0 L 285 0 L 284 2 L 282 2 L 281 0 L 269 0 L 269 2 L 268 4 L 266 6 L 265 6 L 263 9 L 259 9 L 259 11 L 256 13 L 254 13 L 250 5 L 248 5 L 248 9 L 251 14 L 255 14 L 256 15 L 258 15 L 259 17 L 261 17 L 261 15 L 262 14 L 266 14 L 267 13 L 269 13 L 272 17 L 272 21 L 273 22 L 273 24 L 272 25 L 270 25 L 270 27 L 269 28 L 269 32 L 270 33 L 270 36 L 269 37 L 266 37 L 265 36 L 265 34 L 263 34 L 262 36 L 262 39 L 267 45 L 267 46 L 269 46 L 270 35 L 273 33 L 276 33 L 276 31 L 275 30 L 276 21 L 277 20 L 279 20 L 280 21 L 280 23 L 283 26 L 285 26 L 285 24 L 283 22 L 280 16 L 280 14 L 278 11 L 278 9 L 279 8 L 281 8 L 282 10 L 286 14 L 288 14 L 287 9 L 284 5 L 284 3 L 285 2 L 288 2 Z" fill="black"/>
  <path d="M 11 25 L 0 144 L 112 135 L 0 149 L 0 217 L 146 216 L 0 223 L 0 734 L 20 762 L 0 753 L 0 916 L 43 919 L 26 942 L 0 938 L 0 1535 L 1023 1535 L 1023 0 L 387 0 L 361 57 L 281 55 L 254 93 L 163 84 L 167 109 L 143 121 L 94 85 L 78 0 L 78 38 Z" fill="black"/>
</svg>
