<?xml version="1.0" encoding="UTF-8"?>
<!-- Generator: visioncortex VTracer 0.6.12 -->
<svg version="1.1" xmlns="http://www.w3.org/2000/svg" width="1536" height="1024">
<path d="M0 0 C506.88 0 1013.76 0 1536 0 C1536 337.92 1536 675.84 1536 1024 C1029.12 1024 522.24 1024 0 1024 C0 686.08 0 348.16 0 0 Z M1177 235 C1177 235.66 1177 236.32 1177 237 C1176.536 237.072 1176.536 237.072 1174.188 237.438 C1171 238 1171 238 1168 239 C1168 239.99 1168 240.98 1168 242 C1166.886 241.979 1165.773 241.959 1164.625 241.938 C1161 242 1161 242 1159 243 C1159.165 243.66 1159.165 243.66 1160 247 C1158.68 247 1157.36 247 1156 247 C1156 246.34 1156 245.68 1156 245 C1153.69 245.66 1151.38 246.32 1149 247 C1149 247.66 1149 248.32 1149 249 C1146.69 249.33 1144.38 249.66 1142 250 C1142 250.66 1142 251.32 1142 252 C1139.69 252.33 1137.38 252.66 1135 253 C1135 253.66 1135 254.32 1135 255 C1133.969 255.103 1132.938 255.206 1131.875 255.312 C1128.049 255.991 1125.366 257.112 1122 259 C1122 260.32 1122 261.64 1122 263 C1122.66 263 1123.32 263 1124 263 C1124 263.66 1124 264.32 1124 265 C1127.437 264.241 1130.611 263.049 1133.887 261.77 C1135.038 261.322 1136.19 260.874 1137.376 260.413 C1138.572 259.946 1139.768 259.48 1141 259 C1143.319 258.107 1145.638 257.215 1147.957 256.324 C1149.088 255.889 1150.219 255.454 1151.385 255.006 C1153.987 254.005 1153.987 254.005 1167 249 C1167 248.34 1167 247.68 1167 247 C1167.99 247 1168.98 247 1170 247 C1170 246.34 1170 245.68 1170 245 C1170.536 245.248 1171.072 245.495 1171.625 245.75 C1175.337 246.141 1177.181 244.242 1180 242 C1180 241.34 1180 240.68 1180 240 C1181.65 239.67 1183.3 239.34 1185 239 C1184.835 238.34 1184.835 238.34 1184 235 C1181.69 235 1179.38 235 1177 235 Z M1090 239 C1090.33 240.98 1090.66 242.96 1091 245 C1090.34 245 1089.68 245 1089 245 C1089.33 245.99 1089.66 246.98 1090 248 C1090.99 247.67 1091.98 247.34 1093 247 C1093 246.01 1093 245.02 1093 244 C1093.66 244 1094.32 244 1095 244 C1095 243.34 1095 242.68 1095 242 C1094.01 242 1093.02 242 1092 242 C1092 241.01 1092 240.02 1092 239 C1091.34 239 1090.68 239 1090 239 Z M1070 249 C1070 249.66 1070 250.32 1070 251 C1069.34 251 1068.68 251 1068 251 C1068 251.66 1068 252.32 1068 253 C1069.98 252.67 1071.96 252.34 1074 252 C1074 251.34 1074 250.68 1074 250 C1072.68 249.67 1071.36 249.34 1070 249 Z M1081 252 C1081 252.99 1081 253.98 1081 255 C1082.65 254.34 1084.3 253.68 1086 253 C1086 252.01 1086 251.02 1086 250 C1084 250 1084 250 1081 252 Z M1066 253 C1066 253.66 1066 254.32 1066 255 C1066.66 255 1067.32 255 1068 255 C1068 254.34 1068 253.68 1068 253 C1067.34 253 1066.68 253 1066 253 Z M1064 255 C1064 255.99 1064 256.98 1064 258 C1064.66 258 1065.32 258 1066 258 C1066 257.01 1066 256.02 1066 255 C1065.34 255 1064.68 255 1064 255 Z M1186 259 C1185.67 259.495 1185.67 259.495 1184 262 C1181.375 262.688 1181.375 262.688 1179 263 C1179.33 264.32 1179.66 265.64 1180 267 C1181.65 267 1183.3 267 1185 267 C1185 266.34 1185 265.68 1185 265 C1186.65 264.67 1188.3 264.34 1190 264 C1190 263.34 1190 262.68 1190 262 C1190.66 262 1191.32 262 1192 262 C1191.67 261.01 1191.34 260.02 1191 259 C1188.625 258.812 1188.625 258.812 1186 259 Z M1112.875 261.5 C1112.513 261.639 1112.513 261.639 1110.68 262.344 C1110.125 262.56 1109.571 262.777 1109 263 C1109 263.66 1109 264.32 1109 265 C1110.65 264.505 1110.65 264.505 1119 262 C1119 261.34 1119 260.68 1119 260 C1116.635 260 1115.077 260.648 1112.875 261.5 Z M1104 265 C1104 265.66 1104 266.32 1104 267 C1105.32 267 1106.64 267 1108 267 C1108 266.34 1108 265.68 1108 265 C1106.68 265 1105.36 265 1104 265 Z M1108 282 C1108 282.66 1108 283.32 1108 284 C1108.99 284 1109.98 284 1111 284 C1111 283.34 1111 282.68 1111 282 C1110.01 282 1109.02 282 1108 282 Z M1096 283 C1096 283.66 1096 284.32 1096 285 C1096.99 285 1097.98 285 1099 285 C1099 284.34 1099 283.68 1099 283 C1098.01 283 1097.02 283 1096 283 Z M1084 284 C1084 284.66 1084 285.32 1084 286 C1084.66 286 1085.32 286 1086 286 C1086 285.34 1086 284.68 1086 284 C1085.34 284 1084.68 284 1084 284 Z M1048 287 C1048 287.66 1048 288.32 1048 289 C1049.32 289 1050.64 289 1052 289 C1052 288.34 1052 287.68 1052 287 C1050.68 287 1049.36 287 1048 287 Z M1034 288 C1034 288.66 1034 289.32 1034 290 C1034.66 290 1035.32 290 1036 290 C1036 289.34 1036 288.68 1036 288 C1035.34 288 1034.68 288 1034 288 Z M1022 289 C1022 289.66 1022 290.32 1022 291 C1022.66 291 1023.32 291 1024 291 C1024 290.34 1024 289.68 1024 289 C1023.34 289 1022.68 289 1022 289 Z M962 295 C962 295.66 962 296.32 962 297 C962.66 297 963.32 297 964 297 C964 296.34 964 295.68 964 295 C963.34 295 962.68 295 962 295 Z M1231 296 C1231 296.66 1231 297.32 1231 298 C1231.66 298 1232.32 298 1233 298 C1233 297.34 1233 296.68 1233 296 C1232.34 296 1231.68 296 1231 296 Z M940 297 C940 297.66 940 298.32 940 299 C940.66 299 941.32 299 942 299 C942 298.34 942 297.68 942 297 C941.34 297 940.68 297 940 297 Z M930 298 C930 298.66 930 299.32 930 300 C930.66 300 931.32 300 932 300 C932 299.34 932 298.68 932 298 C931.34 298 930.68 298 930 298 Z M1207 298 C1207 298.66 1207 299.32 1207 300 C1207.99 300 1208.98 300 1210 300 C1210 299.34 1210 298.68 1210 298 C1209.01 298 1208.02 298 1207 298 Z M921 299 C921 299.66 921 300.32 921 301 C921.66 301 922.32 301 923 301 C923 300.34 923 299.68 923 299 C922.34 299 921.68 299 921 299 Z M1196 299 C1196 299.66 1196 300.32 1196 301 C1196.66 301 1197.32 301 1198 301 C1198 300.34 1198 299.68 1198 299 C1197.34 299 1196.68 299 1196 299 Z M1114 305 C1113.67 305.99 1113.34 306.98 1113 308 C1114.32 308 1115.64 308 1117 308 C1116.67 307.01 1116.34 306.02 1116 305 C1115.34 305 1114.68 305 1114 305 Z M1127 305 C1127 305.66 1127 306.32 1127 307 C1127.66 307 1128.32 307 1129 307 C1129 306.34 1129 305.68 1129 305 C1128.34 305 1127.68 305 1127 305 Z M851 307 C851 307.66 851 308.32 851 309 C851.66 309 852.32 309 853 309 C853 308.34 853 307.68 853 307 C852.34 307 851.68 307 851 307 Z M1393 309 C1393 309.66 1393 310.32 1393 311 C1395.97 311 1398.94 311 1402 311 C1402 310.34 1402 309.68 1402 309 C1399.03 309 1396.06 309 1393 309 Z M1364 310 C1364 310.66 1364 311.32 1364 312 C1364.99 312 1365.98 312 1367 312 C1367 311.34 1367 310.68 1367 310 C1366.01 310 1365.02 310 1364 310 Z M1340 311 C1340 311.66 1340 312.32 1340 313 C1340.99 313 1341.98 313 1343 313 C1343 312.34 1343 311.68 1343 311 C1342.01 311 1341.02 311 1340 311 Z M813 312 C813 312.66 813 313.32 813 314 C813.66 314 814.32 314 815 314 C815 313.34 815 312.68 815 312 C814.34 312 813.68 312 813 312 Z M1320 312 C1320 312.66 1320 313.32 1320 314 C1320.66 314 1321.32 314 1322 314 C1322 313.34 1322 312.68 1322 312 C1321.34 312 1320.68 312 1320 312 Z M806 313 C806 313.66 806 314.32 806 315 C806.66 315 807.32 315 808 315 C808 314.34 808 313.68 808 313 C807.34 313 806.68 313 806 313 Z M1300 313 C1300 313.66 1300 314.32 1300 315 C1301.32 315 1302.64 315 1304 315 C1304 314.34 1304 313.68 1304 313 C1302.68 313 1301.36 313 1300 313 Z M1288 314 C1288 314.66 1288 315.32 1288 316 C1288.66 316 1289.32 316 1290 316 C1290 315.34 1290 314.68 1290 314 C1289.34 314 1288.68 314 1288 314 Z M1273 315 C1273 315.66 1273 316.32 1273 317 C1274.32 317 1275.64 317 1277 317 C1277 316.34 1277 315.68 1277 315 C1275.68 315 1274.36 315 1273 315 Z M783 316 C783 316.66 783 317.32 783 318 C783.66 318 784.32 318 785 318 C785 317.34 785 316.68 785 316 C784.34 316 783.68 316 783 316 Z M1188.149 315.549 C1187.401 315.608 1186.653 315.668 1185.882 315.728 C1183.397 315.926 1180.912 316.128 1178.427 316.329 C1176.635 316.473 1174.844 316.615 1173.053 316.758 C1168.198 317.146 1163.344 317.537 1158.491 317.93 C1155.449 318.176 1152.408 318.421 1149.366 318.666 C1138.729 319.522 1128.091 320.381 1117.455 321.244 C1107.585 322.044 1097.715 322.837 1087.845 323.626 C1079.339 324.307 1070.833 324.992 1062.328 325.682 C1057.262 326.093 1052.197 326.502 1047.131 326.905 C1042.354 327.285 1037.577 327.673 1032.8 328.065 C1031.064 328.206 1029.327 328.345 1027.591 328.482 C1018.47 329.2 1009.417 330.133 1000.363 331.467 C999.558 331.584 998.753 331.702 997.923 331.823 C975.014 335.352 956.442 345.028 942.52 364.02 C932.211 379.8 927.222 399.708 921.375 417.438 C920.991 418.595 920.607 419.753 920.211 420.946 C914.632 437.769 909.204 454.638 903.938 471.562 C903.638 472.524 903.339 473.485 903.03 474.475 C902.192 477.171 901.359 479.868 900.527 482.566 C900.283 483.353 900.04 484.141 899.788 484.951 C896.724 494.968 894.935 505.947 898.902 516.004 C902.661 522.84 908.685 526.698 916 529 C931.978 532.209 949.336 529.412 965.383 527.988 C967.846 527.775 970.309 527.563 972.773 527.352 C979.252 526.793 985.73 526.225 992.209 525.656 C998.594 525.096 1004.981 524.546 1011.367 523.994 C1031.836 522.223 1052.302 520.426 1072.765 518.587 C1074.043 518.473 1075.321 518.358 1076.638 518.24 C1082.714 517.694 1088.791 517.147 1094.867 516.596 C1104.944 515.686 1115.01 514.795 1125.114 514.238 C1127.848 514.013 1130.363 513.765 1133 513 C1134.571 510.333 1134.571 510.333 1135.91 506.738 C1136.159 506.09 1136.407 505.441 1136.663 504.773 C1137.481 502.626 1138.271 500.47 1139.062 498.312 C1139.636 496.794 1140.212 495.277 1140.79 493.76 C1141.973 490.655 1143.147 487.547 1144.315 484.437 C1146.668 478.207 1149.182 472.045 1151.688 465.875 C1156.739 453.31 1161.641 440.687 1166.504 428.049 C1167.332 425.897 1168.162 423.747 1168.994 421.597 C1170.162 418.573 1171.324 415.547 1172.484 412.52 C1172.84 411.602 1173.196 410.685 1173.562 409.74 C1173.884 408.895 1174.206 408.05 1174.538 407.179 C1174.822 406.441 1175.105 405.703 1175.397 404.943 C1176 403 1176 403 1176 400 C1163.637 399.683 1151.347 400.642 1139.02 401.461 C1136.679 401.613 1134.339 401.766 1131.998 401.917 C1127.1 402.236 1122.202 402.557 1117.305 402.881 C1111.106 403.29 1104.906 403.695 1098.706 404.098 C1093.869 404.412 1089.033 404.728 1084.196 405.045 C1081.915 405.194 1079.634 405.343 1077.353 405.492 C1065.071 406.295 1052.793 407.137 1040.518 408.045 C1039.394 408.126 1038.27 408.206 1037.112 408.289 C1036.078 408.367 1035.044 408.445 1033.979 408.526 C1033.064 408.593 1032.149 408.661 1031.206 408.73 C1029 409 1029 409 1027 410 C1028.336 412.976 1029.792 415.04 1032.125 417.312 C1032.664 417.845 1033.203 418.377 1033.758 418.926 C1035.719 420.74 1037.713 422.498 1039.73 424.25 C1044.705 428.583 1049.48 433.117 1054.264 437.658 C1063.956 446.809 1063.956 446.809 1067.332 447.426 C1068.151 447.388 1068.969 447.351 1069.812 447.312 C1070.756 447.276 1071.7 447.24 1072.672 447.203 C1073.77 447.136 1074.868 447.069 1076 447 C1077.401 446.931 1078.802 446.864 1080.203 446.797 C1091.601 446.199 1091.601 446.199 1094 445 C1092.856 448.126 1091.71 451.25 1090.562 454.375 C1090.237 455.264 1089.912 456.154 1089.576 457.07 C1089.42 457.496 1089.42 457.496 1088.629 459.648 C1088.341 460.434 1088.053 461.219 1087.756 462.029 C1087 464 1087 464 1086 466 C1084.006 466.452 1084.006 466.452 1081.321 466.74 C1080.301 466.852 1079.281 466.964 1078.231 467.08 C1077.096 467.194 1075.962 467.308 1074.793 467.426 C1073.6 467.551 1072.407 467.677 1071.178 467.807 C1056.213 469.345 1041.22 470.582 1026.226 471.79 C1022.103 472.122 1017.982 472.464 1013.86 472.809 C1010.617 473.078 1007.372 473.342 1004.128 473.604 C1002.609 473.727 1001.09 473.853 999.571 473.981 C989.357 474.836 979.25 475.149 969 475 C969.542 467.417 971.421 460.718 973.75 453.5 C974.348 451.618 974.946 449.736 975.543 447.854 C975.976 446.492 976.411 445.13 976.846 443.769 C978.42 438.85 979.959 433.92 981.484 428.985 C982.634 425.264 983.793 421.545 984.953 417.826 C985.523 415.992 986.091 414.158 986.655 412.322 C987.455 409.723 988.267 407.129 989.082 404.535 C989.317 403.761 989.552 402.987 989.795 402.19 C991.483 396.877 993.222 391.58 998.316 388.683 C1001.528 387.866 1004.64 387.424 1007.938 387.07 C1008.628 386.995 1009.319 386.92 1010.03 386.843 C1012.353 386.595 1014.676 386.359 1017 386.125 C1017.82 386.04 1018.641 385.955 1019.486 385.868 C1035.537 384.212 1051.615 382.991 1067.707 381.82 C1085.841 380.499 1103.954 379.005 1122.062 377.375 C1123.226 377.271 1124.39 377.166 1125.588 377.059 C1139.734 375.788 1153.871 374.444 1168 373 C1168.33 372.01 1168.66 371.02 1169 370 C1169.66 370 1170.32 370 1171 370 C1172.55 367.906 1173.972 365.815 1175.375 363.625 C1176.279 362.237 1177.184 360.849 1178.09 359.461 C1178.565 358.728 1179.041 357.996 1179.531 357.241 C1180.979 355.033 1182.454 352.846 1183.941 350.664 C1189.306 342.778 1194.436 334.798 1199.25 326.562 C1199.489 326.157 1199.489 326.157 1200.699 324.104 C1201.133 323.349 1201.568 322.594 1202.016 321.816 C1202.208 321.484 1202.208 321.484 1203.181 319.799 C1204 318 1204 318 1204 315 C1198.685 314.948 1193.448 315.112 1188.149 315.549 Z M1261 316 C1261 316.66 1261 317.32 1261 318 C1261.66 318 1262.32 318 1263 318 C1263 317.34 1263 316.68 1263 316 C1262.34 316 1261.68 316 1261 316 Z M1235 317 C1235 317.99 1235 318.98 1235 320 C1236.32 320 1237.64 320 1239 320 C1239 319.34 1239 318.68 1239 318 C1237.68 317.67 1236.36 317.34 1235 317 Z M1248 317 C1248 317.66 1248 318.32 1248 319 C1248.66 319 1249.32 319 1250 319 C1250 318.34 1250 317.68 1250 317 C1249.34 317 1248.68 317 1248 317 Z M661 318 C661 318.66 661 319.32 661 320 C662.155 319.835 662.155 319.835 668 319 C668 318.34 668 317.68 668 317 C665.572 317 663.371 317.501 661 318 Z M733 323 C733 323.66 733 324.32 733 325 C733.66 325 734.32 325 735 325 C735 324.34 735 323.68 735 323 C734.34 323 733.68 323 733 323 Z M545 324 C545 324.66 545 325.32 545 326 C546.98 326 548.96 326 551 326 C551 325.34 551 324.68 551 324 C549.02 324 547.04 324 545 324 Z M579 324 C579 324.66 579 325.32 579 326 C579.66 326 580.32 326 581 326 C581 325.34 581 324.68 581 324 C580.34 324 579.68 324 579 324 Z M513 327 C513 327.66 513 328.32 513 329 C513.66 329 514.32 329 515 329 C515 328.34 515 327.68 515 327 C514.34 327 513.68 327 513 327 Z M505 328 C505 328.66 505 329.32 505 330 C505.66 330 506.32 330 507 330 C507 329.34 507 328.68 507 328 C506.34 328 505.68 328 505 328 Z M931.695 339.293 C923.848 341.833 915.962 343.677 907.875 345.312 C906.475 345.605 905.075 345.899 903.676 346.193 C896.564 347.685 889.442 349.116 882.304 350.479 C878.853 351.141 875.405 351.824 871.958 352.508 C870.294 352.833 868.628 353.148 866.96 353.453 C857.702 355.147 850.447 356.632 844 364 C843.085 364.811 842.17 365.622 841.227 366.457 C834.082 372.925 827.254 379.673 820.495 386.542 C817.17 389.905 813.844 393.188 810.242 396.254 C806.644 399.347 803.296 402.641 799.961 406.012 C799.427 406.551 798.893 407.091 798.342 407.647 C796.122 409.895 793.906 412.146 791.694 414.402 C790.059 416.068 788.416 417.728 786.773 419.387 C786.283 419.891 785.792 420.395 785.286 420.915 C782.079 424.145 778.836 426.603 775 429 C774.83 428.473 774.66 427.946 774.484 427.403 C772.5 421.342 770.278 415.393 768 409.438 C762.304 394.418 757.158 379.21 752 364 C744 364.558 736.266 365.765 728.406 367.328 C727.221 367.559 726.035 367.79 724.814 368.028 C721.041 368.763 717.271 369.506 713.5 370.25 C708.573 371.216 703.646 372.178 698.719 373.141 C698.115 373.259 698.115 373.259 695.058 373.857 C682.389 376.33 669.697 378.677 657 381 C657 382.32 657 383.64 657 385 C659.438 386.625 659.438 386.625 662 388 C662.33 388.66 662.66 389.32 663 390 C663.992 389.79 664.985 389.579 666.007 389.362 C681.496 386.086 697.003 382.895 712.509 379.699 C716.184 378.942 719.859 378.184 723.533 377.426 C730.689 375.95 737.844 374.475 745 373 C745.33 374.65 745.66 376.3 746 378 C745.378 378.038 744.755 378.076 744.114 378.115 C736.679 378.671 729.517 379.969 722.229 381.513 C720.156 381.952 718.082 382.383 716.007 382.812 C710.862 383.876 705.718 384.952 700.576 386.032 C696.209 386.949 691.841 387.859 687.47 388.761 C685.44 389.182 683.411 389.613 681.382 390.044 C675.138 391.332 669.379 392.361 663 392 C658.267 402.541 654.639 413.464 650.901 424.386 C648.917 430.185 646.92 435.979 644.922 441.773 C644.514 442.958 644.105 444.143 643.685 445.364 C639.881 456.381 635.989 467.367 632.078 478.347 C626.924 492.82 621.802 507.301 616.938 521.875 C616.732 522.49 616.732 522.49 615.689 525.603 C613 533.739 613 533.739 613 536 C613.66 536 614.32 536 615 536 C615 535.34 615 534.68 615 534 C615.742 533.938 616.485 533.876 617.25 533.812 C620.967 532.714 621.815 531.188 624 528 C625.24 525.365 626.2 522.655 627.156 519.906 C627.449 519.087 627.743 518.268 628.045 517.425 C629.043 514.621 630.023 511.811 631 509 C631.361 507.966 631.722 506.932 632.093 505.866 C634.92 497.752 637.713 489.627 640.5 481.5 C642.133 476.739 643.768 471.978 645.406 467.219 C645.797 466.082 646.189 464.945 646.592 463.773 C649.283 455.984 652.072 448.236 654.995 440.531 C657 435.204 657 435.204 657 433 C657.66 433 658.32 433 659 433 C657.606 437.667 656.21 442.334 654.812 447 C654.71 447.343 654.71 447.343 654.191 449.076 C651.461 458.195 648.69 467.297 645.777 476.359 C645 479 645 479 645 481 C645.456 480.885 645.456 480.885 647.762 480.301 C655.871 478.256 663.992 476.262 672.125 474.312 C672.569 474.205 672.569 474.205 674.815 473.663 C675.239 473.562 675.239 473.562 677.383 473.051 C677.756 472.961 677.756 472.961 679.645 472.509 C682.417 471.91 685.201 471.448 688 471 C687.758 471.711 687.515 472.423 687.266 473.156 C686.172 476.373 685.086 479.593 684 482.812 C683.618 483.932 683.237 485.052 682.844 486.205 C682.483 487.278 682.122 488.351 681.75 489.457 C681.415 490.447 681.08 491.437 680.734 492.456 C680 495 680 495 680 498 C678.02 498 676.04 498 674 498 C674 498.99 674 499.98 674 501 C675.32 501 676.64 501 678 501 C676.456 506.102 674.874 511.191 673.258 516.271 C672.713 518 672.179 519.733 671.655 521.468 C670.9 523.965 670.108 526.447 669.309 528.93 C669.195 529.318 669.195 529.318 668.623 531.285 C667.917 533.405 667.259 535.153 666 537 C662.636 538.407 662.636 538.407 659 539 C658.08 539.261 657.16 539.522 656.212 539.79 C642.507 543.656 628.786 547.434 615 551 C616.54 554.832 618.912 556.941 622 559.625 C627 564 627 564 629 566 C631.553 565.85 631.553 565.85 634.762 565.289 C635.347 565.189 635.347 565.189 638.306 564.681 C639.525 564.456 640.744 564.231 642 564 C642.578 563.894 642.578 563.894 645.502 563.358 C648.943 562.714 652.378 562.048 655.812 561.375 C656.994 561.146 658.175 560.916 659.393 560.68 C662.262 560.122 665.131 559.562 668 559 C675.419 537.49 682.746 515.951 689.89 494.348 C691.139 490.576 692.403 486.809 693.685 483.047 C693.963 482.226 694.241 481.405 694.527 480.559 C695.066 478.972 695.607 477.386 696.153 475.802 C697.184 472.752 698 470.243 698 467 C696.35 467 694.7 467 693 467 C696.119 457.234 700.175 448.13 704.697 438.935 C705.123 438.064 705.549 437.194 705.988 436.297 C706.375 435.517 706.763 434.736 707.161 433.933 C708 432 708 432 708 430 C708.66 430 709.32 430 710 430 C710 430.66 710 431.32 710 432 C710.66 432 711.32 432 712 432 C712.106 432.984 712.212 433.968 712.322 434.982 C712.945 439.306 714.328 443.203 715.852 447.281 C715.997 447.679 715.997 447.679 716.734 449.691 C717.69 452.296 718.657 454.898 719.625 457.5 C720.295 459.316 720.964 461.132 721.634 462.948 C727.039 477.578 732.607 492.145 738.25 506.684 C738.555 507.468 738.859 508.253 739.173 509.062 C739.737 510.516 740.302 511.969 740.87 513.421 C742.356 517.249 743.736 521.093 745 525 C748.893 523.443 751.061 520.986 753.812 517.875 C754.033 517.628 754.033 517.628 755.146 516.377 C756.437 514.924 757.719 513.462 759 512 C759.624 511.29 760.248 510.579 760.891 509.848 C762.004 508.576 763.114 507.303 764.223 506.027 C766.294 503.665 768.395 501.332 770.5 499 C773.19 496.019 775.863 493.028 778.5 490 C781.137 486.972 783.81 483.981 786.5 481 C791.321 475.652 796.079 470.257 800.75 464.777 C805.491 459.219 810.241 453.691 815.188 448.312 C819.205 443.936 822.964 439.402 826.695 434.781 C831.524 428.954 836.63 423.333 842 418 C841.69 418.859 841.38 419.718 841.061 420.603 C832.086 445.571 823.856 470.743 815.851 496.037 C813.781 502.571 811.676 509.093 809.539 515.605 C809.276 516.41 809.012 517.214 808.741 518.043 C806.771 524.059 806.771 524.059 805.785 527.029 C805.133 528.994 804.488 530.962 803.844 532.93 C803.485 534.015 803.126 535.1 802.756 536.218 C802 539 802 539 802 543 C816.183 542.192 830.339 541.061 844.5 539.938 C846.884 539.749 849.268 539.561 851.652 539.373 C857.435 538.917 863.218 538.459 869 538 C871.37 531.006 873.563 523.97 875.703 516.902 C876.436 514.491 877.169 512.08 877.902 509.669 C878.093 509.039 878.093 509.039 879.061 505.85 C885.85 483.496 892.714 461.167 899.72 438.88 C902.629 429.62 905.513 420.355 908.316 411.062 C925.915 352.802 925.915 352.802 940.375 341.125 C941.241 340.424 942.108 339.723 943 339 C943 338.34 943 337.68 943 337 C938.804 337 935.604 337.98 931.695 339.293 Z M517 353 C516.345 353.109 515.689 353.219 515.014 353.331 C453.574 363.67 394.702 385.576 342 419 C342.33 419.99 342.66 420.98 343 422 C344.756 422.812 344.756 422.812 347.059 423.43 C347.911 423.666 348.764 423.901 349.642 424.145 C350.565 424.386 351.487 424.627 352.438 424.875 C354.354 425.393 356.271 425.911 358.188 426.43 C359.158 426.688 360.129 426.947 361.129 427.214 C363.831 427.954 366.509 428.748 369.188 429.57 C369.99 429.812 370.793 430.053 371.619 430.301 C373.129 430.756 374.635 431.223 376.136 431.703 C380.918 433.106 383.478 433.008 388 431 C389.664 430.31 391.328 429.621 392.992 428.934 C394.953 428.102 396.914 427.27 398.875 426.438 C425.847 415.128 453.056 405.969 481.5 399.188 C482.288 398.998 483.076 398.809 483.888 398.615 C499.448 394.903 514.993 391.449 531.062 391.562 C532.098 391.543 533.134 391.523 534.201 391.502 C540.839 391.506 546.319 392.391 552 396 C554.842 399.51 555.221 402.364 555.062 406.75 C553.124 420.002 541.739 429.728 531.582 437.418 C519.348 446.357 506.337 453.848 493 461 C491.934 461.572 490.869 462.144 489.771 462.733 C478.048 468.993 466.347 475.066 454 480 C457.572 470.38 461.54 460.973 465.646 451.573 C467.421 447.507 469.185 443.437 470.949 439.367 C471.297 438.565 471.645 437.762 472.003 436.936 C475.045 429.912 478.045 422.873 481 415.812 C481.415 414.829 481.829 413.845 482.257 412.831 C482.441 412.388 482.441 412.388 483.375 410.145 C483.692 409.385 484.009 408.626 484.336 407.843 C485 406 485 406 485 404 C477.444 404.671 470.311 406.593 463 408.562 C462.344 408.739 461.687 408.915 461.011 409.096 C448.164 412.553 435.52 416.49 423 421 C422.621 421.133 422.621 421.133 420.702 421.804 C418.725 422.504 416.768 423.241 414.812 424 C413.788 424.392 412.763 424.784 411.707 425.188 C404.65 429.913 401.705 439.606 398.312 447.062 C397.468 448.901 396.623 450.739 395.778 452.577 C394.853 454.591 393.931 456.606 393.008 458.622 C390.839 463.356 388.653 468.083 386.465 472.809 C372.939 502.035 372.939 502.035 367.398 514.436 C364.095 521.821 360.726 529.175 357.358 536.53 C335.486 584.3 335.486 584.3 327.996 602.023 C325.281 608.428 322.356 614.713 319.312 620.969 C318.132 623.695 317.437 626.074 317 629 C321.083 627.71 324.901 626.195 328.762 624.348 C329.867 623.824 330.972 623.3 332.111 622.76 C333.291 622.2 334.471 621.64 335.688 621.062 C345.323 616.531 355.018 612.22 364.875 608.188 C365.432 607.95 365.432 607.95 368.252 606.751 C373.486 604.576 378.337 602.809 383.949 601.945 C390.831 600.698 396.995 599.246 401.253 593.229 C407.551 582.842 411.756 571.23 416.085 559.926 C418.539 553.543 421.344 547.343 424.188 541.125 C425.119 539.038 426.048 536.949 426.973 534.859 C427.447 533.788 427.922 532.716 428.411 531.611 C429.933 528.152 431.445 524.688 432.954 521.223 C434.334 518.052 435.719 514.884 437.104 511.715 C437.781 510.164 438.455 508.611 439.127 507.058 C440.061 504.898 441.002 502.742 441.945 500.586 C442.225 499.933 442.505 499.28 442.793 498.608 C444.772 494.114 444.772 494.114 447 493 C447.265 493.711 447.531 494.421 447.804 495.153 C450.043 500.482 453.175 505.352 456.125 510.312 C456.301 510.61 456.301 510.61 457.194 512.114 C471.829 536.721 487.868 560.646 507 582 C507.486 582.548 507.973 583.096 508.474 583.661 C511.589 587.166 514.769 590.6 518 594 C518.624 594.697 519.248 595.395 519.891 596.113 C522.027 598.285 523.745 599.885 526.86 600.171 C535.204 599.321 543.17 596.976 551.226 594.736 C555.757 593.477 560.294 592.245 564.832 591.012 C565.755 590.76 566.679 590.509 567.63 590.25 C577.242 587.643 586.896 585.208 596.562 582.812 C596.957 582.715 596.957 582.715 598.954 582.219 C603.302 581.141 607.65 580.068 612 579 C610.185 575.029 607.606 572.545 604.375 569.688 C603.834 569.2 603.293 568.713 602.735 568.211 C599.177 565.018 595.586 561.861 591.977 558.727 C580.387 548.603 569.138 538.088 557.926 527.551 C553.015 522.94 548.063 518.379 543.09 513.836 C539.373 510.433 535.686 506.999 532 503.562 C531.364 502.971 530.729 502.379 530.074 501.769 C528.377 500.185 526.687 498.594 525 497 C524.196 496.246 523.391 495.492 522.562 494.715 C521 493 521 493 521 491 C521.778 490.76 522.556 490.52 523.357 490.272 C547.388 482.773 570.577 474.099 591 459 C591.409 458.705 591.409 458.705 593.48 457.211 C612.499 443.006 630.243 424.365 634 400 C634.77 388.011 634.064 377.438 625.988 368.059 C612.03 353.606 591.269 349.942 571.844 349.602 C568.728 349.575 565.615 349.593 562.5 349.625 C561.675 349.63 560.85 349.635 560.001 349.64 C545.504 349.742 531.318 350.604 517 353 Z M1290 383 C1290 383.66 1290 384.32 1290 385 C1290.99 385 1291.98 385 1293 385 C1293 384.34 1293 383.68 1293 383 C1292.01 383 1291.02 383 1290 383 Z M1235 425 C1235 425.66 1235 426.32 1235 427 C1235.66 427 1236.32 427 1237 427 C1237 426.34 1237 425.68 1237 425 C1236.34 425 1235.68 425 1235 425 Z M708 434 C708 434.66 708 435.32 708 436 C708.66 436 709.32 436 710 436 C710 435.34 710 434.68 710 434 C709.34 434 708.68 434 708 434 Z M1241 441 C1241 441.66 1241 442.32 1241 443 C1241.99 443 1242.98 443 1244 443 C1244 442.34 1244 441.68 1244 441 C1243.01 441 1242.02 441 1241 441 Z M1209 442 C1209 442.66 1209 443.32 1209 444 C1209.66 444 1210.32 444 1211 444 C1211 443.34 1211 442.68 1211 442 C1210.34 442 1209.68 442 1209 442 Z M1301 451 C1301 453.31 1301 455.62 1301 458 C1303.438 457.25 1303.438 457.25 1306 456 C1306.875 453.938 1306.875 453.938 1307 452 C1306 451 1306 451 1303.438 450.938 C1302.633 450.958 1301.829 450.979 1301 451 Z M335 482 C335 482.66 335 483.32 335 484 C335.66 484 336.32 484 337 484 C337 483.34 337 482.68 337 482 C336.34 482 335.68 482 335 482 Z M1282 485 C1282 485.99 1282 486.98 1282 488 C1283.32 488 1284.64 488 1286 488 C1286 487.34 1286 486.68 1286 486 C1284.68 485.67 1283.36 485.34 1282 485 Z M1276 486 C1276 486.66 1276 487.32 1276 488 C1276.66 488 1277.32 488 1278 488 C1278 487.34 1278 486.68 1278 486 C1277.34 486 1276.68 486 1276 486 Z M1288 487 C1288 487.66 1288 488.32 1288 489 C1288.66 489 1289.32 489 1290 489 C1290 488.34 1290 487.68 1290 487 C1289.34 487 1288.68 487 1288 487 Z M652 506 C652 506.66 652 507.32 652 508 C651.01 507.835 651.01 507.835 646 507 C646 507.66 646 508.32 646 509 C645.051 508.814 644.102 508.629 643.125 508.438 C640 508 640 508 638 509 C638 508.34 638 507.68 638 507 C637.34 507 636.68 507 636 507 C635.327 508.769 634.662 510.54 634 512.312 C633.629 513.299 633.258 514.285 632.875 515.301 C632 518 632 518 632 521 C636.746 519.511 641.219 517.652 645.75 515.625 C651.785 512.952 657.844 510.383 664 508 C664 507.34 664 506.68 664 506 C660.04 506 656.08 506 652 506 Z M1294 508 C1294 508.66 1294 509.32 1294 510 C1294.66 510 1295.32 510 1296 510 C1296 509.34 1296 508.68 1296 508 C1295.34 508 1294.68 508 1294 508 Z M1210 514 C1210 514.66 1210 515.32 1210 516 C1211.98 516 1213.96 516 1216 516 C1216 515.34 1216 514.68 1216 514 C1214.02 514 1212.04 514 1210 514 Z M1184 515 C1184 515.66 1184 516.32 1184 517 C1186.64 517 1189.28 517 1192 517 C1192 516.34 1192 515.68 1192 515 C1189.36 515 1186.72 515 1184 515 Z M609 546 C609 546.66 609 547.32 609 548 C609.66 548 610.32 548 611 548 C611 547.34 611 546.68 611 546 C610.34 546 609.68 546 609 546 Z M1169 550 C1169 550.66 1169 551.32 1169 552 C1169.66 552 1170.32 552 1171 552 C1171 551.34 1171 550.68 1171 550 C1170.34 550 1169.68 550 1169 550 Z M890 552 C890 552.66 890 553.32 890 554 C890.66 554 891.32 554 892 554 C892 553.34 892 552.68 892 552 C891.34 552 890.68 552 890 552 Z M873 554 C873 554.99 873 555.98 873 557 C875.31 556.67 875.31 556.67 887 555 C887 554.34 887 553.68 887 553 C885.417 552.973 883.833 552.954 882.25 552.938 C881.368 552.926 880.487 552.914 879.578 552.902 C877.218 552.992 875.255 553.331 873 554 Z M748.891 554.363 C748.073 554.511 747.255 554.658 746.412 554.81 C743.69 555.305 740.97 555.807 738.25 556.312 C737.307 556.487 736.365 556.662 735.393 556.842 C713.001 561.017 690.827 566.069 668.676 571.361 C666.197 571.953 663.717 572.541 661.236 573.127 C641.432 577.825 621.834 583.209 602.25 588.75 C601.11 589.072 599.97 589.395 598.796 589.727 C586.142 593.315 573.524 596.978 561 601 C561 601.66 561 602.32 561 603 C563.31 602.34 565.62 601.68 568 601 C568 601.66 568 602.32 568 603 C567.34 603 566.68 603 566 603 C566 603.66 566 604.32 566 605 C566.66 605 567.32 605 568 605 C568 605.66 568 606.32 568 607 C577.029 604.768 586.042 602.505 595 600 C595 599.01 595 598.02 595 597 C595.66 597 596.32 597 597 597 C597 597.66 597 598.32 597 599 C609.595 596.126 622.096 592.936 634.591 589.658 C649.868 585.65 665.152 581.678 680.488 577.902 C707.549 571.232 734.748 564.426 761 555 C761 554.34 761 553.68 761 553 C756.827 553 752.975 553.618 748.891 554.363 Z M866 554 C866.33 555.32 866.66 556.64 867 558 C867.66 558 868.32 558 869 558 C868.67 556.68 868.34 555.36 868 554 C867.34 554 866.68 554 866 554 Z M859 555 C859 555.66 859 556.32 859 557 C859.66 557 860.32 557 861 557 C861 556.34 861 555.68 861 555 C860.34 555 859.68 555 859 555 Z M760.812 570.188 C759.979 570.356 759.145 570.524 758.287 570.697 C736.208 575.177 736.208 575.177 727.938 580.562 C727.468 580.862 727.468 580.862 725.09 582.379 C724.745 582.646 724.745 582.646 723 584 C723 584.66 723 585.32 723 586 C730.928 585.428 738.546 583.976 746.309 582.305 C748.25 581.894 750.192 581.483 752.134 581.072 C754.175 580.639 756.215 580.204 758.255 579.768 C762.469 578.867 766.686 577.975 770.903 577.084 C771.6 576.937 772.298 576.79 773.016 576.638 C774.418 576.342 775.82 576.046 777.222 575.75 C779.306 575.31 781.39 574.869 783.474 574.429 C793.952 572.214 804.436 570.034 814.938 567.938 C815.617 567.802 816.296 567.666 816.996 567.526 C828.962 565.145 840.964 562.992 853 561 C853 560.01 853 559.02 853 558 C853.66 558 854.32 558 855 558 C855 557.34 855 556.68 855 556 C823.879 556 791.183 564.013 760.812 570.188 Z M861 557 C861 557.66 861 558.32 861 559 C861.99 559 862.98 559 864 559 C864 558.34 864 557.68 864 557 C863.01 557 862.02 557 861 557 Z M855 558 C855 558.66 855 559.32 855 560 C855.99 560 856.98 560 858 560 C858 559.34 858 558.68 858 558 C857.01 558 856.02 558 855 558 Z M1104.116 561.883 C1103.427 561.977 1102.739 562.072 1102.03 562.17 C1099.741 562.485 1097.452 562.805 1095.164 563.125 C1093.547 563.35 1091.93 563.574 1090.313 563.799 C1085.083 564.526 1079.854 565.262 1074.625 566 C1073.735 566.125 1072.846 566.251 1071.929 566.38 C1043.517 570.389 1015.192 574.636 987 580 C985.939 580.201 984.879 580.402 983.786 580.609 C950.741 586.874 917.828 593.68 885 601 C885 601.66 885 602.32 885 603 C886.082 603.136 887.164 603.272 888.279 603.411 C892.392 603.928 896.506 604.449 900.619 604.971 C902.38 605.194 904.142 605.417 905.904 605.637 C916.247 606.935 926.558 608.339 936.846 610.026 C945.733 611.478 952.01 611.456 960.656 608.844 C961.401 608.622 962.146 608.399 962.913 608.17 C970.624 605.849 978.269 603.337 985.915 600.811 C1020.199 589.51 1054.755 579.33 1089.621 569.988 C1098.096 567.715 1106.55 565.364 1115 563 C1115 562.34 1115 561.68 1115 561 C1111.244 561 1107.831 561.369 1104.116 561.883 Z M1006 602 C1006 602.66 1006 603.32 1006 604 C1006.99 604 1007.98 604 1009 604 C1009 603.34 1009 602.68 1009 602 C1008.01 602 1007.02 602 1006 602 Z M486.729 604.538 C485.864 604.877 484.999 605.216 484.108 605.565 C483.169 605.939 482.229 606.314 481.262 606.699 C480.771 606.893 480.771 606.893 478.29 607.871 C475.087 609.137 471.887 610.412 468.688 611.688 C468.145 611.903 468.145 611.903 465.397 612.995 C420.559 630.824 420.559 630.824 400.238 641.344 C395.568 643.732 390.799 645.885 386 648 C386 648.66 386 649.32 386 650 C392.483 648.105 398.89 646.067 405.258 643.816 C406.113 643.515 406.969 643.215 407.85 642.904 C417.897 639.353 427.886 635.648 437.875 631.938 C440.879 630.824 443.884 629.711 446.889 628.598 C448.919 627.846 450.949 627.094 452.978 626.342 C463.272 622.526 473.573 618.73 483.875 614.938 C485.525 614.33 487.174 613.723 488.824 613.115 C492.549 611.743 496.274 610.371 500 609 C500 608.01 500 607.02 500 606 C494.81 603.232 492.215 602.372 486.729 604.538 Z M995.375 603.5 C994.966 603.639 994.966 603.639 992.898 604.344 C992.272 604.56 991.645 604.777 991 605 C991 605.66 991 606.32 991 607 C994.63 607 998.26 607 1002 607 C1002 605.35 1002 603.7 1002 602 C999.534 602 997.707 602.701 995.375 603.5 Z M1011 604 C1011 604.66 1011 605.32 1011 606 C1012.32 606 1013.64 606 1015 606 C1015 605.34 1015 604.68 1015 604 C1013.68 604 1012.36 604 1011 604 Z M564 606 C564 606.66 564 607.32 564 608 C564.66 608 565.32 608 566 608 C566 607.34 566 606.68 566 606 C565.34 606 564.68 606 564 606 Z M1023 613 C1023 613.66 1023 614.32 1023 615 C1023.66 615 1024.32 615 1025 615 C1025 614.34 1025 613.68 1025 613 C1024.34 613 1023.68 613 1023 613 Z M785 628 C785 628.66 785 629.32 785 630 C785.66 630 786.32 630 787 630 C787 629.34 787 628.68 787 628 C786.34 628 785.68 628 785 628 Z M621 632 C620.67 632.99 620.34 633.98 620 635 C620.99 634.67 621.98 634.34 623 634 C623 633.34 623 632.68 623 632 C622.34 632 621.68 632 621 632 Z M610 634 C610 634.66 610 635.32 610 636 C610.66 636 611.32 636 612 636 C612 635.34 612 634.68 612 634 C611.34 634 610.68 634 610 634 Z M604 635 C604 635.66 604 636.32 604 637 C604.66 637 605.32 637 606 637 C606 636.34 606 635.68 606 635 C605.34 635 604.68 635 604 635 Z M576 640 C576 640.66 576 641.32 576 642 C576.66 642 577.32 642 578 642 C578 641.34 578 640.68 578 640 C577.34 640 576.68 640 576 640 Z M571 641 C571 641.66 571 642.32 571 643 C571.66 643 572.32 643 573 643 C573 642.34 573 641.68 573 641 C572.34 641 571.68 641 571 641 Z M722 641 C722 641.66 722 642.32 722 643 C722.66 643 723.32 643 724 643 C724 642.34 724 641.68 724 641 C723.34 641 722.68 641 722 641 Z M713 643 C713 643.66 713 644.32 713 645 C713.66 645 714.32 645 715 645 C715 644.34 715 643.68 715 643 C714.34 643 713.68 643 713 643 Z M551 645 C551 645.66 551 646.32 551 647 C551.66 647 552.32 647 553 647 C553 646.34 553 645.68 553 645 C552.34 645 551.68 645 551 645 Z M641 660 C641 660.66 641 661.32 641 662 C641.66 662 642.32 662 643 662 C643 661.34 643 660.68 643 660 C642.34 660 641.68 660 641 660 Z M604 672 C604 672.66 604 673.32 604 674 C604.66 674 605.32 674 606 674 C606 673.34 606 672.68 606 672 C605.34 672 604.68 672 604 672 Z M431 673 C431 673.66 431 674.32 431 675 C431.66 675 432.32 675 433 675 C433 674.34 433 673.68 433 673 C432.34 673 431.68 673 431 673 Z M323 675 C322.67 675.99 322.34 676.98 322 678 C322.99 677.67 323.98 677.34 325 677 C325 676.34 325 675.68 325 675 C324.34 675 323.68 675 323 675 Z M498 679 C498 679.99 498 680.98 498 682 C499.32 681.67 500.64 681.34 502 681 C502 680.34 502 679.68 502 679 C500.68 679 499.36 679 498 679 Z M488 681 C488 681.66 488 682.32 488 683 C488.66 683 489.32 683 490 683 C490 682.34 490 681.68 490 681 C489.34 681 488.68 681 488 681 Z M493 682 C492.67 682.99 492.34 683.98 492 685 C493.98 685 495.96 685 498 685 C498 684.34 498 683.68 498 683 C496.35 682.67 494.7 682.34 493 682 Z M480 684 C480 684.66 480 685.32 480 686 C478.02 686.33 476.04 686.66 474 687 C474 690.3 474 693.6 474 697 C473.34 697 472.68 697 472 697 C472 697.99 472 698.98 472 700 C473.65 699.67 475.3 699.34 477 699 C477 698.01 477 697.02 477 696 C477.66 696 478.32 696 479 696 C479 695.34 479 694.68 479 694 C480.32 693.67 481.64 693.34 483 693 C482.67 690.03 482.34 687.06 482 684 C481.34 684 480.68 684 480 684 Z M492 687 C492 687.66 492 688.32 492 689 C492.66 689 493.32 689 494 689 C494 688.34 494 687.68 494 687 C493.34 687 492.68 687 492 687 Z M527 690 C526.34 691.32 525.68 692.64 525 694 C526.65 693.34 528.3 692.68 530 692 C530 691.34 530 690.68 530 690 C529.01 690 528.02 690 527 690 Z M463 688 C463 688.99 463 689.98 463 691 C462.134 690.794 461.267 690.587 460.375 690.375 C456.471 689.941 454.455 690.115 451 692 C449.75 695.562 449.75 695.562 449 699 C448.67 699.165 448.67 699.165 447 700 C447 700.66 447 701.32 447 702 C447.99 702 448.98 702 450 702 C450 702.99 450 703.98 450 705 C453.3 704.67 456.6 704.34 460 704 C460.33 703.01 460.66 702.02 461 701 C462.155 700.835 462.155 700.835 468 700 C468.33 699.01 468.66 698.02 469 697 C468.34 697 467.68 697 467 697 C466.856 695.886 466.711 694.773 466.562 693.625 C466 690 466 690 465 688 C464.34 688 463.68 688 463 688 Z M560 692 C559.34 693.32 558.68 694.64 558 696 C559.32 695.67 560.64 695.34 562 695 C562 694.01 562 693.02 562 692 C561.34 692 560.68 692 560 692 Z M521 695 C521 695.66 521 696.32 521 697 C522.32 697 523.64 697 525 697 C525 696.34 525 695.68 525 695 C523.68 695 522.36 695 521 695 Z M517 698 C517 698.66 517 699.32 517 700 C518.32 699.67 519.64 699.34 521 699 C521 698.34 521 697.68 521 697 C519 697 519 697 517 698 Z M423 702 C423 702.99 423 703.98 423 705 C422.01 704.938 421.02 704.876 420 704.812 C415.531 704.785 412.087 706.279 408 708 C408 708.66 408 709.32 408 710 C407.06 710.081 406.121 710.162 405.152 710.246 C399.984 710.984 395.353 713.066 390.562 715.062 C389.64 715.44 388.718 715.817 387.768 716.205 C385.509 717.13 383.253 718.061 381 719 C381 719.66 381 720.32 381 721 C384.126 720.359 387.251 719.711 390.375 719.062 C391.264 718.88 392.154 718.698 393.07 718.51 C393.496 718.421 393.496 718.421 395.648 717.973 C396.041 717.891 396.041 717.891 398.029 717.481 C400 717 400 717 402 716 C402 715.34 402 714.68 402 714 C402.66 714 403.32 714 404 714 C404 714.66 404 715.32 404 716 C406.475 715.505 406.475 715.505 419 713 C419 712.01 419 711.02 419 710 C420.299 710.206 421.599 710.413 422.938 710.625 C427.954 711.206 432.182 710.378 437 709 C436 706 436 706 433.812 704.688 C430.258 703.819 428.324 704.609 425 706 C425 705.34 425 704.68 425 704 C425.66 704 426.32 704 427 704 C427 703.01 427 702.02 427 701 C425 701 425 701 423 702 Z M444 705 C444 705.66 444 706.32 444 707 C444.66 707 445.32 707 446 707 C446 706.34 446 705.68 446 705 C445.34 705 444.68 705 444 705 Z M478 715 C478 715.66 478 716.32 478 717 C479.32 717 480.64 717 482 717 C482 717.66 482 718.32 482 719 C481.01 719 480.02 719 479 719 C479 719.66 479 720.32 479 721 C480.65 720.67 482.3 720.34 484 720 C484 718.02 484 716.04 484 714 C481.844 714 480.076 714.447 478 715 Z M232 749 C231.67 749.99 231.34 750.98 231 752 C231.99 752 232.98 752 234 752 C234 751.01 234 750.02 234 749 C233.34 749 232.68 749 232 749 Z " fill="#000000" transform="translate(0,0)"/>
<path d="M0 0 C-0.875 4.875 -0.875 4.875 -2 6 C-4.263 6.228 -6.533 6.389 -8.803 6.525 C-9.519 6.569 -10.235 6.613 -10.972 6.659 C-13.369 6.806 -15.767 6.946 -18.164 7.086 C-19.85 7.188 -21.537 7.29 -23.223 7.393 C-26.817 7.612 -30.412 7.827 -34.006 8.041 C-39.631 8.375 -45.256 8.716 -50.881 9.058 C-58.272 9.508 -65.664 9.956 -73.056 10.401 C-99.706 12.006 -126.352 13.63 -152.971 15.69 C-155.064 15.851 -157.157 16.008 -159.25 16.161 C-169.557 16.919 -179.724 17.921 -189.879 19.887 C-190.672 20.037 -191.465 20.187 -192.282 20.342 C-203.383 22.655 -214.649 28.297 -223 36 C-223.313 36.281 -223.313 36.281 -224.898 37.703 C-239.666 52.529 -245.005 74.711 -251.086 94.09 C-252.57 98.792 -254.238 103.395 -256 108 C-255.67 107.835 -255.67 107.835 -254 107 C-251.512 106.704 -249.039 106.456 -246.543 106.246 C-245.803 106.181 -245.063 106.116 -244.301 106.049 C-242.733 105.911 -241.165 105.776 -239.597 105.643 C-237.207 105.439 -234.817 105.229 -232.428 105.018 C-230.904 104.885 -229.38 104.753 -227.855 104.621 C-227.144 104.559 -226.432 104.496 -225.699 104.432 C-222.122 104.13 -218.59 103.931 -215 104 C-215.589 111.304 -217.656 117.914 -219.875 124.875 C-220.581 127.122 -221.287 129.37 -221.992 131.617 C-222.966 134.716 -223.941 137.815 -224.929 140.909 C-225.204 141.789 -225.479 142.668 -225.762 143.574 C-226.004 144.338 -226.246 145.102 -226.495 145.889 C-227.291 149.216 -226.992 151.759 -226 155 C-223.938 156.812 -223.938 156.812 -222 158 C-222 158.66 -222 159.32 -222 160 C-223.031 160.227 -224.062 160.454 -225.125 160.688 C-229.399 161.91 -231.828 163.901 -235 167 C-235.33 167.743 -235.66 168.485 -236 169.25 C-236.33 169.827 -236.66 170.405 -237 171 C-237.969 171.103 -238.939 171.206 -239.938 171.312 C-240.948 171.539 -241.959 171.766 -243 172 C-244.625 175.312 -244.625 175.312 -246 179 C-247.292 180.373 -248.624 181.71 -250 183 C-252.506 186.491 -253.369 188.697 -253 193 C-250.69 193 -248.38 193 -246 193 C-246 193.66 -246 194.32 -246 195 C-268.204 195.527 -268.204 195.527 -276 189 C-280.302 183.419 -281.655 178.982 -281 172 C-280.123 168.062 -278.94 164.229 -277.75 160.375 C-277.397 159.21 -277.044 158.045 -276.681 156.844 C-272.405 142.848 -267.878 128.93 -263.306 115.028 C-261.797 110.435 -260.299 105.839 -258.813 101.239 C-238.348 37.952 -238.348 37.952 -210.211 22.465 C-207.511 21.163 -204.808 20.048 -202 19 C-201.06 18.643 -200.121 18.286 -199.152 17.918 C-191.465 15.375 -183.797 14.376 -175.774 13.518 C-175.183 13.453 -175.183 13.453 -172.19 13.128 C-159.021 11.734 -145.826 10.772 -132.617 9.844 C-129.977 9.654 -127.337 9.464 -124.697 9.273 C-117.816 8.776 -110.934 8.286 -104.051 7.797 C-91.76 6.924 -79.47 6.042 -67.18 5.156 C-65.878 5.063 -64.576 4.969 -63.234 4.873 C-44.672 3.535 -26.132 2.071 -7.615 0.204 C-5.064 0.005 -2.557 -0.037 0 0 Z M-269 139 C-269 139.66 -269 140.32 -269 141 C-268.34 141 -267.68 141 -267 141 C-267 140.34 -267 139.68 -267 139 C-267.66 139 -268.32 139 -269 139 Z " fill="#000000" transform="translate(1187,326)"/>
<path d="M0 0 C-2.063 8.71 -8.498 15.761 -14.52 22.113 C-16.223 24.284 -17.086 26.409 -18 29 C-20.583 29.336 -23.166 29.669 -25.75 30 C-26.115 30.048 -26.115 30.048 -27.961 30.289 C-31.349 30.72 -34.579 31 -38 31 C-38 30.34 -38 29.68 -38 29 C-35.572 27.238 -33.134 25.577 -30.625 23.938 C-23.892 19.428 -17.869 14.602 -12 9 C-10.173 7.305 -8.34 5.618 -6.5 3.938 C-5.685 3.183 -4.871 2.429 -4.031 1.652 C-2 0 -2 0 0 0 Z " fill="#000000" transform="translate(1180,338)"/>
<path d="M0 0 C0.66 0 1.32 0 2 0 C-0.489 18.87 -10.058 32.638 -23 46 C-23.801 46.84 -24.601 47.681 -25.426 48.547 C-29.892 53.145 -34.502 57.638 -40 61 C-40.66 61 -41.32 61 -42 61 C-40.493 57.323 -38.365 55.324 -35.375 52.75 C-27.424 45.737 -20.784 38.923 -15 30 C-14.339 28.998 -13.677 27.997 -12.996 26.965 C-7.524 18.419 -3.212 9.636 0 0 Z " fill="#000000" transform="translate(623,395)"/>
<path d="M0 0 C-1.579 3.894 -4.241 6.482 -7.199 9.359 C-7.712 9.867 -8.226 10.376 -8.755 10.899 C-10.394 12.521 -12.04 14.136 -13.688 15.75 C-15.841 17.866 -17.991 19.986 -20.137 22.109 C-20.658 22.625 -21.18 23.141 -21.717 23.673 C-25.058 27.001 -28.193 30.437 -31.249 34.024 C-35.768 39.124 -40.765 43.799 -45.617 48.578 C-50.072 52.992 -54.384 57.452 -58.467 62.213 C-60.67 64.781 -62.958 67.261 -65.25 69.75 C-65.712 70.253 -66.174 70.756 -66.649 71.275 C-69.059 73.899 -71.477 76.515 -73.906 79.121 C-79.24 84.863 -84.333 90.693 -89 97 C-89.99 96.67 -90.98 96.34 -92 96 C-93.12 93.751 -94.042 91.605 -94.918 89.262 C-95.18 88.585 -95.442 87.907 -95.712 87.21 C-96.265 85.775 -96.812 84.338 -97.353 82.9 C-98.182 80.702 -99.03 78.512 -99.881 76.322 C-100.415 74.928 -100.948 73.532 -101.48 72.137 C-101.734 71.482 -101.987 70.828 -102.247 70.154 C-103.486 66.838 -104 64.604 -104 61 C-101.547 59.18 -99.205 57.69 -96.562 56.188 C-94.902 55.21 -93.242 54.232 -91.582 53.254 C-90.682 52.731 -89.782 52.208 -88.854 51.668 C-84.85 49.328 -80.882 46.928 -76.911 44.531 C-61.828 35.436 -46.662 26.481 -31.461 17.586 C-30.812 17.206 -30.163 16.826 -29.494 16.435 C-26.296 14.562 -23.096 12.691 -19.896 10.823 C-14.978 7.948 -10.071 5.073 -5.273 2 C-2 0 -2 0 0 0 Z " fill="#000000" transform="translate(840,412)"/>
<path d="M0 0 C-0.722 4.952 -2.608 9.353 -4.473 13.961 C-4.828 14.848 -5.183 15.735 -5.549 16.649 C-6.716 19.559 -7.889 22.467 -9.062 25.375 C-9.872 27.389 -10.681 29.404 -11.49 31.418 C-18.504 48.86 -25.621 66.26 -32.794 83.637 C-33.924 86.377 -35.026 89.081 -35.941 91.902 C-37 94 -37 94 -38.772 94.779 C-39.507 94.852 -40.242 94.925 -41 95 C-41.438 95.049 -41.438 95.049 -43.654 95.297 C-44.148 95.336 -44.148 95.336 -46.648 95.535 C-47.736 95.622 -48.824 95.709 -49.945 95.799 C-51.077 95.886 -52.209 95.973 -53.375 96.062 C-53.937 96.108 -53.937 96.108 -56.781 96.338 C-61.872 96.738 -66.89 97.049 -72 97 C-74.402 92.196 -74.611 87.269 -75 82 C-78.985 84.114 -81.35 86.351 -84.062 89.938 C-90.736 98.699 -90.736 98.699 -94.977 99.709 C-96.138 99.807 -97.298 99.904 -98.493 100.005 C-99.136 100.064 -99.779 100.123 -100.441 100.184 C-102.56 100.374 -104.68 100.539 -106.801 100.703 C-108.281 100.83 -109.76 100.959 -111.24 101.09 C-115.134 101.428 -119.029 101.744 -122.925 102.056 C-126.093 102.313 -129.259 102.586 -132.425 102.86 C-136.217 103.188 -140.009 103.509 -143.801 103.828 C-144.518 103.889 -145.235 103.949 -145.974 104.011 C-148.022 104.182 -150.07 104.348 -152.118 104.513 C-152.7 104.56 -152.7 104.56 -155.642 104.799 C-159.103 105.006 -162.534 105.034 -166 105 C-165.703 103.13 -165.703 103.13 -165 101 C-162.489 99.396 -160.097 98.059 -157.438 96.75 C-156.681 96.365 -155.925 95.98 -155.146 95.584 C-153.563 94.781 -151.977 93.984 -150.388 93.193 C-148.078 92.039 -145.782 90.86 -143.488 89.672 C-142.076 88.947 -140.663 88.223 -139.25 87.5 C-138.923 87.331 -138.923 87.331 -137.267 86.476 C-133.835 84.748 -130.753 83.723 -127 83 C-125.688 80.938 -125.688 80.938 -125 79 C-124.01 79 -123.02 79 -122 79 C-121.67 77.02 -121.34 75.04 -121 73 C-121.66 73 -122.32 73 -123 73 C-122.835 72.34 -122.835 72.34 -122 69 C-120.876 68.889 -119.752 68.779 -118.594 68.665 C-114.376 68.248 -110.159 67.825 -105.942 67.401 C-104.125 67.219 -102.309 67.039 -100.492 66.86 C-73.076 64.16 -73.076 64.16 -70.257 61.122 C-68.941 59.131 -67.952 57.185 -67 55 C-66.34 53.68 -65.68 52.36 -65 51 C-57.74 50.67 -50.48 50.34 -43 50 C-44.65 47.36 -46.3 44.72 -48 42 C-47.812 38 -47.812 38 -47 35 C-48.32 35 -49.64 35 -51 35 C-50.67 33.68 -50.34 32.36 -50 31 C-49.34 31 -48.68 31 -48 31 C-48 30.34 -48 29.68 -48 29 C-48.66 29 -49.32 29 -50 29 C-50.061 28.201 -50.121 27.402 -50.184 26.578 C-50.758 19.049 -51.363 11.524 -52 4 C-51.01 4 -50.02 4 -49 4 C-49 4.99 -49 5.98 -49 7 C-48.34 7 -47.68 7 -47 7 C-47.165 6.34 -47.165 6.34 -48 3 C-41.486 2.572 -34.971 2.145 -28.457 1.718 C-26.239 1.573 -24.022 1.427 -21.804 1.282 C-18.622 1.073 -15.44 0.864 -12.258 0.656 C-11.262 0.591 -10.266 0.525 -9.24 0.457 C-8.319 0.397 -7.398 0.337 -6.45 0.275 C-5.637 0.222 -4.824 0.169 -3.987 0.114 C-2.66 0.038 -1.329 0 0 0 Z M-40 47 C-40 47.66 -40 48.32 -40 49 C-38.35 49 -36.7 49 -35 49 C-35 48.34 -35 47.68 -35 47 C-36.65 47 -38.3 47 -40 47 Z " fill="#000000" transform="translate(1163,411)"/>
<path d="M0 0 C0.66 0 1.32 0 2 0 C-0.738 13.844 -16.06 24.556 -27 32 C-30.443 34.227 -33.928 36.378 -37.438 38.5 C-38.29 39.017 -39.142 39.533 -40.021 40.066 C-44.256 42.574 -48.213 44.692 -53 46 C-53 45.34 -53 44.68 -53 44 C-51.247 42.722 -51.247 42.722 -48.793 41.277 C-47.902 40.743 -47.01 40.21 -46.092 39.659 C-45.133 39.091 -44.175 38.523 -43.188 37.938 C-35.201 33.099 -28.028 28.151 -21 22 C-20.504 21.612 -20.504 21.612 -17.996 19.648 C-11.367 14.422 -6.485 9.17 -1.742 2.273 C-1.455 1.898 -1.455 1.898 0 0 Z " fill="#000000" transform="translate(560,421)"/>
<path d="M0 0 C0 0.66 0 1.32 0 2 C-1.739 3.441 -3.545 4.802 -5.375 6.125 C-6.478 6.928 -7.579 7.733 -8.68 8.539 C-9.236 8.947 -9.793 9.354 -10.366 9.774 C-13.623 12.217 -16.728 14.851 -19.844 17.469 C-22 19 -22 19 -26 20 C-26.99 17.03 -27.98 14.06 -29 11 C-22.984 7.804 -16.928 5.091 -10.562 2.688 C-9.864 2.421 -9.166 2.155 -8.447 1.88 C-5.494 0.785 -3.176 0 0 0 Z " fill="#000000" transform="translate(759,449)"/>
<path d="M0 0 C-0.627 5.928 -2.241 11.233 -4.125 16.875 C-7.293 26.556 -10.109 36.308 -12.778 46.138 C-13.055 47.151 -13.332 48.164 -13.617 49.207 C-13.861 50.109 -14.104 51.011 -14.355 51.941 C-15 54 -15 54 -16 55 C-18.786 55.304 -21.554 55.549 -24.348 55.754 C-24.77 55.786 -24.77 55.786 -26.909 55.951 C-28.705 56.089 -30.502 56.224 -32.299 56.357 C-35.027 56.56 -37.755 56.771 -40.482 56.982 C-42.229 57.115 -43.976 57.247 -45.723 57.379 C-46.531 57.441 -47.34 57.504 -48.173 57.568 C-53.13 57.931 -58.029 58.056 -63 58 C-63 56.68 -63 55.36 -63 54 C-62.34 54 -61.68 54 -61 54 C-61 54.66 -61 55.32 -61 56 C-60.34 56 -59.68 56 -59 56 C-59 55.01 -59 54.02 -59 53 C-57.845 52.835 -57.845 52.835 -52 52 C-52 51.34 -52 50.68 -52 50 C-52.495 50.165 -52.495 50.165 -55 51 C-57.333 51.04 -59.667 51.044 -62 51 C-59.474 40.929 -56.124 31.144 -52.812 21.312 C-52.248 19.628 -51.683 17.944 -51.119 16.26 C-49.749 12.172 -48.376 8.086 -47 4 C-46.34 4 -45.68 4 -45 4 C-45 4.66 -45 5.32 -45 6 C-43.708 5.818 -42.416 5.636 -41.084 5.449 C-36.303 4.777 -31.52 4.106 -26.738 3.437 C-24.666 3.146 -22.594 2.855 -20.522 2.563 C-17.549 2.145 -14.575 1.729 -11.602 1.312 C-10.671 1.181 -9.741 1.05 -8.783 0.915 C-7.922 0.795 -7.061 0.675 -6.174 0.551 C-5.415 0.444 -4.655 0.338 -3.873 0.228 C-2 0 -2 0 0 0 Z M-13 31 C-13 31.66 -13 32.32 -13 33 C-12.34 33 -11.68 33 -11 33 C-11 32.34 -11 31.68 -11 31 C-11.66 31 -12.32 31 -13 31 Z M-21 34 C-21 34.66 -21 35.32 -21 36 C-20.34 36 -19.68 36 -19 36 C-19 35.34 -19 34.68 -19 34 C-19.66 34 -20.32 34 -21 34 Z M-32 38 C-32 38.66 -32 39.32 -32 40 C-31.34 40 -30.68 40 -30 40 C-30 39.34 -30 38.68 -30 38 C-30.66 38 -31.32 38 -32 38 Z M-52 46 C-52 46.66 -52 47.32 -52 48 C-50.845 47.835 -50.845 47.835 -45 47 C-45 46.01 -45 45.02 -45 44 C-47.647 44 -49.581 44.981 -52 46 Z M-33 45 C-33 45.66 -33 46.32 -33 47 C-32.34 47 -31.68 47 -31 47 C-31 46.34 -31 45.68 -31 45 C-31.66 45 -32.32 45 -33 45 Z " fill="#000000" transform="translate(878,475)"/>
<path d="M0 0 C0.66 0 1.32 0 2 0 C0.715 5.626 -0.971 10.773 -3.223 16.078 C-3.528 16.812 -3.834 17.546 -4.149 18.302 C-5.115 20.62 -6.088 22.935 -7.062 25.25 C-8.04 27.579 -9.015 29.909 -9.987 32.241 C-10.59 33.685 -11.195 35.127 -11.803 36.568 C-13.103 39.675 -14.335 42.69 -15 46 C-14.013 45.632 -13.026 45.265 -12.009 44.886 C-8.278 43.497 -4.547 42.108 -0.815 40.72 C0.787 40.124 2.388 39.528 3.99 38.931 C11.991 35.951 19.994 32.978 28.023 30.074 C29.134 29.672 30.244 29.269 31.388 28.854 C34 28 34 28 36 28 C34.71 32.072 33.206 35.9 31.383 39.762 C30.865 40.866 30.346 41.971 29.812 43.109 C29.256 44.29 28.699 45.471 28.125 46.688 C26.937 49.223 25.753 51.759 24.57 54.297 C24.27 54.941 23.969 55.586 23.66 56.25 C21.208 61.525 18.816 66.824 16.463 72.144 C15.483 74.351 14.488 76.552 13.48 78.747 C11.081 84.019 8.86 89.248 7.084 94.759 C0.121 116.261 0.121 116.261 -8.902 121.195 C-15.267 124.236 -22.006 126.234 -28.782 128.136 C-35.742 130.112 -42.254 132.911 -48.847 135.863 C-51.747 137.162 -54.66 138.432 -57.574 139.699 C-58.529 140.12 -59.484 140.541 -60.468 140.975 C-62.647 141.857 -64.706 142.508 -67 143 C-65.391 137.638 -63.066 132.768 -60.625 127.75 C-57.138 120.512 -53.712 113.25 -50.367 105.945 C-49.331 103.69 -48.284 101.44 -47.228 99.194 C-42.968 90.123 -42.968 90.123 -41.492 85.695 C-37.124 73.95 -26.845 70.129 -16.302 64.743 C-10.544 61.703 -5.003 58.314 0.562 54.938 C1.088 54.622 1.088 54.622 3.75 53.024 C11.788 48.184 11.788 48.184 15.59 45.566 C18 44 18 44 20 44 C20 43.34 20 42.68 20 42 C14.572 44.343 9.146 46.691 3.722 49.043 C1.879 49.842 0.035 50.639 -1.809 51.435 C-4.47 52.583 -7.128 53.736 -9.785 54.891 C-10.602 55.242 -11.419 55.593 -12.261 55.955 C-15.943 57.559 -19.486 59.222 -22.951 61.257 C-26 63 -26 63 -28 63 C-27.317 57.996 -25.272 53.682 -23.246 49.105 C-23.057 48.673 -23.057 48.673 -22.097 46.484 C-21.292 44.65 -20.484 42.817 -19.674 40.985 C-18.46 38.238 -17.256 35.488 -16.053 32.736 C-2.988 2.988 -2.988 2.988 0 0 Z " fill="#000000" transform="translate(398,470)"/>
<path d="M0 0 C2.395 2.039 2.395 2.039 4.812 4.625 C7.764 7.702 10.681 10.684 13.938 13.438 C17.954 16.862 21.638 20.581 25.32 24.357 C28.796 27.898 28.796 27.898 31 29 C31 29.66 31 30.32 31 31 C30.01 31.082 29.02 31.165 28 31.25 C24.156 31.772 21.237 33.247 17.895 35.16 C16 36 16 36 12 36 C12 36.66 12 37.32 12 38 C10.68 38 9.36 38 8 38 C8 38.66 8 39.32 8 40 C4.629 41.498 2.796 42 -1 42 C-1 42.66 -1 43.32 -1 44 C-2.32 44 -3.64 44 -5 44 C-5 44.66 -5 45.32 -5 46 C-5.99 46 -6.98 46 -8 46 C-8.33 46.99 -8.66 47.98 -9 49 C-9.825 49.165 -9.825 49.165 -14 50 C-14.491 57.362 -14.491 57.362 -12.125 60.438 C-10 62 -10 62 -8 63 C-8 63.66 -8 64.32 -8 65 C-3.71 65 0.58 65 5 65 C5 64.34 5 63.68 5 63 C9.901 63.566 13.061 67.272 16.578 70.406 C21.386 74.583 21.386 74.583 25 75 C25 75.66 25 76.32 25 77 C22.128 77.843 19.253 78.675 16.375 79.5 C15.971 79.619 15.971 79.619 13.926 80.223 C5.467 82.63 5.467 82.63 1 82 C-1.09 80.531 -1.09 80.531 -2.938 78.5 C-3.622 77.76 -4.306 77.02 -5.012 76.258 C-5.668 75.513 -6.324 74.768 -7 74 C-7.543 73.399 -8.085 72.799 -8.645 72.18 C-10.457 70.142 -12.227 68.071 -14 66 C-14.882 64.993 -15.765 63.986 -16.648 62.98 C-26.913 51.233 -36.381 38.914 -45.312 26.125 C-45.787 25.453 -46.261 24.781 -46.75 24.088 C-50 19.358 -50 19.358 -50 16 C-45.016 14.033 -40.024 12.09 -35.023 10.165 C-32.874 9.337 -30.726 8.505 -28.578 7.671 C-24.953 6.267 -21.321 4.882 -17.688 3.5 C-16.513 3.043 -15.339 2.585 -14.13 2.114 C-13.574 1.904 -13.574 1.904 -10.762 0.844 C-9.771 0.464 -8.781 0.084 -7.76 -0.307 C-4.698 -1.076 -2.985 -0.968 0 0 Z " fill="#000000" transform="translate(528,510)"/>
<path d="M0 0 C-0.344 1.466 -0.726 2.923 -1.125 4.375 C-1.334 5.187 -1.543 5.999 -1.758 6.836 C-3.555 9.967 -5.585 10.024 -9 11 C-11.048 11.465 -13.105 11.894 -15.168 12.289 C-15.738 12.399 -15.738 12.399 -18.623 12.953 C-19.799 13.175 -20.976 13.397 -22.188 13.625 C-23.375 13.854 -24.563 14.084 -25.787 14.32 C-34.6 16 -34.6 16 -38 16 C-38 15.01 -38 14.02 -38 13 C-37.052 12.677 -36.103 12.355 -35.126 12.022 C-31.599 10.821 -28.073 9.616 -24.548 8.41 C-23.023 7.889 -21.499 7.369 -19.974 6.851 C-17.778 6.104 -15.584 5.353 -13.391 4.602 C-12.711 4.371 -12.032 4.141 -11.332 3.904 C-7.708 2.658 -3.801 0 0 0 Z " fill="#000000" transform="translate(664,542)"/>
</svg>
