<?xml version="1.0" encoding="UTF-8"?>
<!-- Generator: visioncortex VTracer 0.6.12 -->
<svg version="1.1" xmlns="http://www.w3.org/2000/svg" width="1536" height="1024">
<path d="M0 0 C506.88 0 1013.76 0 1536 0 C1536 337.92 1536 675.84 1536 1024 C1029.12 1024 522.24 1024 0 1024 C0 686.08 0 348.16 0 0 Z M1192.16 313.346 C1191.685 313.384 1191.685 313.384 1189.283 313.579 C1188.252 313.665 1187.22 313.75 1186.157 313.839 C1185.058 313.928 1183.959 314.018 1182.827 314.11 C1179.17 314.409 1175.513 314.71 1171.855 315.012 C1169.277 315.223 1166.698 315.433 1164.12 315.644 C1158.646 316.091 1153.173 316.539 1147.699 316.989 C1134.291 318.09 1120.882 319.187 1107.474 320.282 C1106.078 320.396 1104.683 320.51 1103.287 320.624 C1086.296 322.013 1069.304 323.384 1052.305 324.672 C1050.786 324.787 1049.267 324.903 1047.749 325.019 C1041.259 325.512 1034.768 325.995 1028.276 326.466 C994.675 328.953 994.675 328.953 979.562 333.688 C978.74 333.942 977.917 334.196 977.069 334.458 C958.329 340.585 945.119 353.645 936.277 370.949 C931.213 381.015 927.728 391.575 924.188 402.25 C923.467 404.398 922.745 406.545 922.023 408.692 C916.236 425.989 910.661 443.355 905.139 460.738 C904.713 462.079 904.287 463.42 903.86 464.761 C902.452 469.187 901.052 473.616 899.656 478.047 C899.3 479.17 898.943 480.293 898.576 481.449 C898.25 482.491 897.924 483.532 897.588 484.604 C897.304 485.506 897.02 486.408 896.727 487.337 C894.158 496.745 893.794 506.053 898 515 C902.418 522.269 910.363 525.82 918.438 527.875 C931.597 528.337 944.47 527.36 957.574 526.242 C959.799 526.056 962.023 525.871 964.248 525.686 C970.173 525.191 976.097 524.689 982.021 524.186 C986.922 523.77 991.823 523.359 996.724 522.947 C1027.547 520.355 1058.363 517.687 1089.165 514.853 C1090.368 514.743 1091.572 514.632 1092.811 514.519 C1095.087 514.306 1097.362 514.086 1099.635 513.858 C1104.823 513.342 1109.968 512.938 1115.18 512.785 C1116.15 512.74 1117.121 512.695 1118.12 512.649 C1119.912 512.571 1121.706 512.533 1123.5 512.547 C1126.06 512.413 1127.726 512.197 1130 511 C1132.387 507.594 1133.642 503.909 1135 500 C1135.729 498.202 1136.466 496.408 1137.21 494.616 C1137.959 492.728 1138.705 490.839 1139.449 488.949 C1139.655 488.431 1139.655 488.431 1140.694 485.806 C1142.028 482.434 1143.358 479.061 1144.688 475.688 C1145.614 473.341 1146.541 470.994 1147.468 468.647 C1149.369 463.829 1151.269 459.01 1153.167 454.19 C1155.464 448.357 1157.768 442.526 1160.075 436.696 C1161.76 432.434 1163.44 428.17 1165.119 423.905 C1165.913 421.89 1166.708 419.875 1167.506 417.861 C1168.609 415.074 1169.706 412.283 1170.801 409.492 C1170.964 409.081 1170.964 409.081 1171.792 407 C1174 401.343 1174 401.343 1174 398 C1163.821 397.749 1153.714 398.518 1143.566 399.207 C1141.647 399.335 1139.728 399.462 1137.809 399.589 C1132.748 399.925 1127.686 400.265 1122.625 400.607 C1117.643 400.942 1112.66 401.272 1107.678 401.604 C1101.752 401.997 1095.827 402.393 1089.902 402.795 C1080.763 403.416 1071.625 404.028 1062.483 404.6 C1058.375 404.858 1054.268 405.122 1050.161 405.387 C1048.21 405.511 1046.259 405.632 1044.308 405.749 C1041.62 405.912 1038.933 406.085 1036.246 406.26 C1035.45 406.306 1034.654 406.351 1033.834 406.397 C1030.113 406.651 1028.168 406.888 1025 409 C1027.496 411.525 1029.997 414.044 1032.5 416.562 C1033.196 417.267 1033.892 417.971 1034.609 418.697 C1038.65 422.757 1042.78 426.635 1047.121 430.372 C1050.443 433.25 1053.646 436.259 1056.861 439.256 C1063.006 444.937 1063.006 444.937 1066.373 445.151 C1067.289 445.105 1068.205 445.059 1069.148 445.012 C1069.651 444.988 1069.651 444.988 1072.195 444.869 C1073.245 444.809 1074.294 444.749 1075.375 444.688 C1075.896 444.663 1075.896 444.663 1078.531 444.541 C1083.126 444.309 1087.498 443.991 1092 443 C1091.045 445.751 1090.086 448.501 1089.125 451.25 C1088.856 452.027 1088.586 452.805 1088.309 453.605 C1088.176 453.983 1088.176 453.983 1087.508 455.891 C1087.267 456.582 1087.026 457.273 1086.778 457.985 C1086.521 458.65 1086.264 459.315 1086 460 C1085.776 460.678 1085.553 461.356 1085.322 462.054 C1084 464 1084 464 1081.412 464.769 C1080.307 464.893 1079.203 465.017 1078.065 465.144 C1076.797 465.291 1075.529 465.439 1074.223 465.59 C1072.816 465.73 1071.408 465.866 1070 466 C1069.288 466.07 1068.575 466.141 1067.841 466.213 C1062.219 466.76 1056.591 467.23 1050.961 467.691 C1049.146 467.843 1047.33 467.995 1045.515 468.146 C1041.728 468.463 1037.941 468.776 1034.154 469.087 C1029.36 469.48 1024.567 469.881 1019.774 470.283 C1016.028 470.597 1012.282 470.908 1008.536 471.218 C1006.771 471.364 1005.007 471.511 1003.243 471.659 C990.837 472.697 978.437 473.446 966 474 C966.564 469.922 967.156 466.013 968.32 462.062 C968.601 461.107 968.882 460.152 969.171 459.168 C969.486 458.123 969.801 457.077 970.125 456 C970.46 454.881 970.795 453.762 971.139 452.609 C974.599 441.155 978.186 429.741 981.797 418.334 C982.473 416.199 983.146 414.063 983.818 411.926 C984.774 408.889 985.74 405.854 986.707 402.82 C986.994 401.904 987.282 400.987 987.578 400.043 C991.123 389.01 991.123 389.01 995.353 386.734 C998.047 385.987 1000.568 385.545 1003.348 385.254 C1004.408 385.14 1005.469 385.027 1006.562 384.91 C1007.717 384.795 1008.872 384.681 1010.062 384.562 C1011.289 384.436 1012.516 384.31 1013.78 384.18 C1029.833 382.562 1045.917 381.286 1062 380 C1067.708 379.543 1073.417 379.085 1079.125 378.625 C1079.846 378.567 1080.566 378.509 1081.309 378.449 C1096.162 377.252 1111.009 375.989 1125.856 374.715 C1128.479 374.489 1131.101 374.265 1133.724 374.041 C1137.427 373.724 1141.129 373.405 1144.832 373.086 C1145.942 372.991 1147.052 372.897 1148.195 372.799 C1164.419 371.391 1164.419 371.391 1166.961 369.68 C1167.428 369.084 1167.894 368.489 1168.375 367.875 C1168.945 367.149 1169.515 366.424 1170.102 365.676 C1173.738 360.551 1177.235 355.352 1180.65 350.078 C1182.012 347.982 1183.389 345.897 1184.77 343.812 C1189.467 336.687 1193.983 329.491 1198.188 322.062 C1198.574 321.382 1198.961 320.701 1199.36 320 C1202 315.254 1202 315.254 1202 313 C1198.696 312.967 1195.452 313.076 1192.16 313.346 Z M931.375 337.062 C922.961 339.637 914.418 341.511 905.812 343.312 C905.468 343.385 905.468 343.385 903.722 343.754 C895.93 345.398 888.131 346.985 880.309 348.479 C876.856 349.142 873.408 349.824 869.959 350.508 C868.295 350.833 866.628 351.148 864.959 351.453 C855.696 353.148 848.455 354.637 842 362 C841.036 362.86 840.072 363.72 839.078 364.605 C831.199 371.799 823.644 379.283 816.155 386.882 C812.563 390.511 808.98 394.083 805.098 397.402 C799.687 402.044 794.752 407.178 789.75 412.25 C787.81 414.216 785.867 416.18 783.922 418.141 C783.072 419.002 782.222 419.863 781.347 420.751 C775.87 426 775.87 426 773 426 C771.767 423.454 770.709 420.946 769.688 418.312 C769.352 417.463 769.017 416.614 768.671 415.74 C764.318 404.522 760.416 393.131 756.481 381.761 C756.208 380.973 755.934 380.184 755.652 379.372 C755.138 377.89 754.627 376.407 754.118 374.923 C752.592 370.524 750.88 366.261 749 362 C735.82 363.624 722.838 366.269 709.812 368.812 C705.166 369.715 700.518 370.616 695.871 371.516 C694.745 371.734 693.62 371.952 692.46 372.177 C682.698 374.067 672.924 375.891 663.136 377.642 C662.664 377.727 662.664 377.727 660.273 378.16 C659.484 378.301 658.694 378.441 657.88 378.586 C656 379 656 379 654 380 C654 380.66 654 381.32 654 382 C655.796 383.277 657.666 384.373 659.566 385.488 C660.039 385.987 660.513 386.486 661 387 C660.526 390.561 659.448 393.839 658.26 397.219 C657.901 398.247 657.541 399.276 657.17 400.335 C656.776 401.451 656.382 402.566 655.977 403.715 C655.563 404.893 655.15 406.072 654.724 407.286 C653.829 409.836 652.933 412.386 652.035 414.936 C650.612 418.972 649.195 423.01 647.778 427.049 C643.102 440.374 638.405 453.691 633.695 467.004 C619.309 507.688 619.309 507.688 614.25 523.25 C613.885 524.362 613.52 525.475 613.144 526.621 C612.833 527.597 612.523 528.573 612.203 529.578 C612.072 529.988 612.072 529.988 611.411 532.06 C611 534 611 534 612 536 C612.33 535.01 612.66 534.02 613 533 C613.382 532.856 613.382 532.856 615.312 532.125 C619.468 530.386 621.381 527.365 623.213 523.322 C623.548 522.36 623.882 521.398 624.227 520.406 C624.613 519.308 625 518.21 625.399 517.079 C625.803 515.898 626.208 514.717 626.625 513.5 C627.057 512.264 627.49 511.028 627.935 509.755 C629.076 506.491 630.205 503.223 631.329 499.953 C632.403 496.828 633.481 493.705 634.559 490.582 C635.809 486.955 637.057 483.327 638.303 479.699 C641.127 471.488 644.004 463.297 646.938 455.125 C647.303 454.103 647.669 453.081 648.045 452.029 C649.88 446.942 651.805 441.942 654 437 C652.495 444.919 650.615 452.616 648.266 460.32 C648.022 461.12 647.778 461.919 647.527 462.743 C646.513 466.051 645.49 469.356 644.459 472.659 C643.699 475.106 642.95 477.557 642.203 480.008 C641.967 480.753 641.73 481.497 641.487 482.265 C640.371 485.949 639.855 488.329 641 492 C641.67 490.043 642.336 488.084 643 486.125 C643.371 485.034 643.742 483.944 644.125 482.82 C645 480 645 480 645 478 C645.564 477.885 645.564 477.885 648.418 477.301 C660.671 474.77 672.843 471.957 685 469 C684.324 474.918 682.258 480.246 680.25 485.812 C677.796 492.726 675.434 499.627 673.438 506.688 C672.635 509.461 671.82 512.231 671 515 C670.744 515.869 670.488 516.739 670.224 517.635 C669.389 520.413 668.512 523.175 667.625 525.938 C667.369 526.809 667.113 527.681 666.849 528.579 C666.077 530.914 665.314 532.921 664 535 C661.377 536.192 659.764 536.575 657 537 C655.166 537.497 653.339 538.016 651.516 538.551 C638.708 542.156 625.882 545.668 613 549 C616.227 552.87 619.408 556.593 623.25 559.875 C623.583 560.162 623.583 560.162 625.266 561.617 C628.093 563.871 628.697 564.034 632.468 563.614 C636.426 562.992 640.37 562.294 644.312 561.579 C646.014 561.278 647.719 560.993 649.427 560.725 C651.895 560.337 654.348 559.897 656.805 559.445 C657.565 559.336 658.326 559.226 659.109 559.113 C662.366 558.462 664.339 557.945 666.291 555.155 C667.372 552.803 668.214 550.465 669 548 C669.257 547.273 669.515 546.546 669.78 545.797 C670.559 543.559 671.283 541.31 671.996 539.051 C672.266 538.211 672.536 537.371 672.815 536.506 C673.393 534.708 673.97 532.909 674.544 531.109 C676.072 526.327 677.615 521.55 679.16 516.773 C679.475 515.799 679.79 514.825 680.115 513.822 C683.954 501.999 688.008 490.249 692.088 478.507 C692.352 477.743 692.616 476.979 692.889 476.191 C693.382 474.767 693.877 473.344 694.375 471.922 C696 467.225 696 467.225 696 465 C694.35 465 692.7 465 691 465 C694.216 455.105 698.281 445.988 703.083 436.77 C704.418 434.194 705.709 431.598 707 429 C709.809 430.404 709.846 431.87 710.855 434.816 C711.223 435.871 711.59 436.925 711.969 438.011 C712.371 439.183 712.773 440.355 713.188 441.562 C714.083 444.122 714.981 446.681 715.883 449.238 C716.125 449.927 716.368 450.615 716.617 451.324 C719.809 460.345 723.19 469.295 726.562 478.25 C726.884 479.105 727.206 479.96 727.537 480.842 C729.111 485.024 730.686 489.207 732.263 493.389 C734.663 499.756 737.05 506.128 739.438 512.5 C740.144 514.385 740.851 516.271 741.559 518.156 C742.039 519.438 742.52 520.719 743 522 C745.956 520.678 747.939 519.28 750.137 516.91 C750.71 516.296 751.282 515.682 751.873 515.049 C752.471 514.394 753.07 513.738 753.688 513.062 C753.999 512.726 753.999 512.726 755.573 511.023 C759.91 506.294 763.99 501.425 767.992 496.41 C770.477 493.427 773.201 490.775 775.984 488.074 C779.065 484.904 781.751 481.434 784.516 477.988 C787.237 474.715 790.09 471.604 793 468.5 C796.63 464.625 800.117 460.711 803.438 456.562 C806.946 452.187 810.658 448.08 814.5 444 C819.106 439.108 823.46 434.105 827.652 428.85 C830.107 425.87 832.663 423.016 835.27 420.168 C836.159 419.195 837.048 418.222 837.964 417.219 C838.636 416.487 839.308 415.755 840 415 C839.731 415.797 839.461 416.595 839.184 417.416 C830.245 443.941 821.668 470.58 813.133 497.237 C810.981 503.956 808.813 510.668 806.625 517.375 C806.145 518.85 805.664 520.325 805.184 521.8 C804.341 524.389 803.492 526.976 802.64 529.562 C802.282 530.662 801.924 531.761 801.555 532.895 C801.25 533.821 800.946 534.748 800.632 535.702 C800 538 800 538 800 541 C802.551 540.805 805.102 540.609 807.652 540.414 C808.052 540.383 808.052 540.383 810.073 540.229 C814.483 539.891 818.893 539.551 823.302 539.209 C825.092 539.07 826.882 538.932 828.672 538.793 C829.56 538.724 830.448 538.655 831.362 538.584 C836.579 538.182 841.797 537.796 847.016 537.426 C847.589 537.384 847.589 537.384 850.489 537.171 C852.571 537.019 854.653 536.873 856.736 536.735 C857.194 536.701 857.194 536.701 859.512 536.527 C860.29 536.473 861.068 536.419 861.87 536.363 C864.357 535.939 865.93 535.462 868 534 C869.042 531.705 869.042 531.705 869.832 528.746 C870.147 527.608 870.463 526.469 870.788 525.296 C870.957 524.66 870.957 524.66 871.812 521.438 C872.598 518.593 873.397 515.751 874.195 512.91 C874.303 512.523 874.303 512.523 874.85 510.566 C877.782 500.115 880.996 489.749 884.188 479.375 C884.834 477.269 885.48 475.163 886.127 473.057 C891.905 454.248 897.742 435.458 903.612 416.678 C905.371 411.041 907.102 405.396 908.816 399.746 C922.122 356.006 922.122 356.006 938.18 338.996 C940 337 940 337 941 335 C937.397 335 934.817 335.954 931.375 337.062 Z M371.562 399.25 C370.84 399.62 370.118 399.99 369.373 400.371 C361.622 404.356 353.975 408.497 346.465 412.922 C345.813 413.301 345.162 413.679 344.49 414.069 C342.957 414.989 341.473 415.987 340 417 C340 417.66 340 418.32 340 419 C343.983 420.248 347.966 421.493 351.951 422.735 C353.303 423.157 354.655 423.58 356.006 424.004 C380.291 431.614 380.291 431.614 393 425.688 C432.944 407.769 501.143 378.514 545 391 C549.158 392.858 551.186 394.8 553 399 C553.893 406.736 551.494 413.331 546.938 419.5 C534.182 434.791 516.428 445.134 499.256 454.731 C497.153 455.914 495.065 457.119 492.98 458.336 C479.463 466.177 465.296 472.713 451 479 C455.324 467.847 459.904 456.847 464.812 445.938 C469.116 436.353 473.267 426.721 477.25 417 C477.489 416.421 477.489 416.421 478.698 413.492 C479.133 412.422 479.568 411.352 480.016 410.25 C480.4 409.306 480.785 408.363 481.181 407.391 C482 405 482 405 482 402 C462.773 405.953 443.922 411.062 425.438 417.688 C424.923 417.872 424.923 417.872 422.322 418.803 C419.53 419.828 416.765 420.905 414 422 C413.237 422.266 412.474 422.533 411.688 422.807 C406.289 424.97 404.486 427.911 402.186 433.158 C401.794 434.096 401.403 435.034 401 436 C400.095 437.937 399.183 439.87 398.266 441.801 C397.259 443.971 396.254 446.141 395.25 448.312 C394.689 449.523 394.129 450.734 393.568 451.945 C391.709 455.961 389.854 459.98 388 464 C387.67 464.716 387.339 465.433 386.999 466.171 C378.477 484.654 370 503.158 361.592 521.693 C358.431 528.659 355.261 535.621 352.07 542.574 C339.38 570.234 326.845 597.966 315 626 C319.291 625.357 322.938 623.81 326.828 621.973 C328.187 621.344 329.545 620.715 330.904 620.086 C331.613 619.756 332.322 619.425 333.052 619.085 C344.057 613.966 355.096 608.989 366.375 604.5 C367.377 604.095 368.379 603.691 369.411 603.274 C374.057 601.429 378.668 599.758 383.48 598.398 C384.342 598.137 385.203 597.876 386.09 597.607 C388.563 596.875 388.563 596.875 390.816 596.385 C394.955 595.134 396.65 593.546 399.001 589.871 C401.228 585.683 403.113 581.349 405 577 C405.684 575.471 406.37 573.943 407.057 572.415 C408.861 568.378 410.628 564.325 412.383 560.267 C414.321 555.79 416.275 551.321 418.23 546.852 C418.626 545.947 419.022 545.042 419.43 544.11 C423.472 534.889 427.623 525.718 431.812 516.562 C432.143 515.839 432.473 515.116 432.813 514.371 C436.404 506.51 440.056 498.692 444 491 C445.043 492.687 446.084 494.375 447.125 496.062 C447.298 496.344 447.298 496.344 448.176 497.766 C450.569 501.652 452.939 505.55 455.297 509.457 C461.955 520.479 468.677 531.406 476 542 C476.477 542.693 476.954 543.386 477.445 544.101 C483.616 553.049 489.962 561.706 497 570 C497.408 570.5 497.408 570.5 499.473 573.031 C502.245 576.417 505.099 579.723 508 583 C508.597 583.678 509.194 584.357 509.809 585.056 C511.717 587.193 513.663 589.287 515.625 591.375 C516.222 592.048 516.819 592.721 517.434 593.415 C518.026 594.028 518.617 594.642 519.227 595.273 C519.738 595.824 520.249 596.375 520.776 596.943 C526.602 599.712 534.701 596.468 540.617 594.812 C541.019 594.703 541.019 594.703 543.052 594.15 C544.771 593.682 546.49 593.21 548.208 592.736 C552.756 591.481 557.31 590.248 561.863 589.012 C562.788 588.76 563.712 588.509 564.664 588.25 C574.109 585.686 583.581 583.236 593.062 580.812 C593.828 580.617 594.593 580.421 595.382 580.219 C599.587 579.143 603.793 578.07 608 577 C608 574 608 574 606.418 572.055 C602.417 568.145 598.374 564.427 594 560.938 C587.319 555.591 581.2 549.675 575 543.785 C572.02 540.955 569.008 538.171 565.938 535.438 C559.534 529.728 553.317 523.818 547.067 517.942 C543.8 514.872 540.526 511.81 537.25 508.75 C536.639 508.178 536.027 507.605 535.397 507.016 C532.42 504.234 529.426 501.473 526.395 498.75 C525.832 498.242 525.269 497.735 524.688 497.212 C523.162 495.84 521.63 494.474 520.098 493.109 C518 491 518 491 518 489 C518.437 488.865 518.437 488.865 520.648 488.181 C559.284 476.102 603.75 457.641 624.079 419.868 C630.992 405.85 634.32 392.174 630.031 376.785 C628.421 372.437 626.171 369.346 623 366 C622.385 365.322 621.77 364.644 621.137 363.945 C605.349 348.187 579.687 347.75 558.849 347.75 C493.503 347.91 429.15 369.692 371.562 399.25 Z M706 432 C705.67 433.65 705.34 435.3 705 437 C705.66 436.34 706.32 435.68 707 435 C706.67 434.01 706.34 433.02 706 432 Z M704 437 C703.67 438.98 703.34 440.96 703 443 C703.66 442.34 704.32 441.68 705 441 C704.625 438.875 704.625 438.875 704 437 Z M702 443 C703 445 703 445 703 445 Z M639 492 C640 495 640 495 640 495 Z M638 495 C639 498 639 498 639 498 Z M673 496 C673.33 497.32 673.66 498.64 674 500 C674.33 498.68 674.66 497.36 675 496 C674.34 496 673.68 496 673 496 Z M637 498 C635.8 501.287 634.617 504.58 633.438 507.875 C633.266 508.344 633.266 508.344 632.4 510.715 C632.081 511.611 631.762 512.507 631.434 513.43 C631.135 514.257 630.837 515.085 630.529 515.937 C630 518 630 518 631 520 C632.063 519.282 633.127 518.564 634.223 517.824 C639.657 514.426 645.497 512.171 651.438 509.812 C653.605 508.95 655.771 508.082 657.934 507.207 C658.883 506.83 659.832 506.454 660.81 506.066 C663 505 663 505 664 503 C661.291 503.311 658.583 503.623 655.875 503.938 C655.495 503.981 655.495 503.981 653.57 504.201 C650.228 504.59 646.943 505.011 643.633 505.629 C641 506 641 506 638 505 C638 502.69 638 500.38 638 498 C637.67 498 637.34 498 637 498 Z M608 544 C609 546 609 546 609 546 Z M874.306 551.547 C873.204 551.668 872.101 551.789 870.965 551.914 C869.779 552.048 868.593 552.182 867.371 552.32 C866.126 552.459 864.881 552.598 863.598 552.741 C859.544 553.197 855.49 553.659 851.438 554.125 C851.092 554.165 851.092 554.165 849.344 554.365 C818.823 557.876 788.777 562.465 758.688 568.688 C757.753 568.88 756.819 569.072 755.856 569.271 C753.198 569.822 750.542 570.383 747.887 570.949 C747.496 571.03 747.496 571.03 745.518 571.441 C738.071 573.054 731.431 575.427 725 579.625 C724.526 579.931 724.526 579.931 722.125 581.477 C721.774 581.728 721.774 581.728 720 583 C720 583.33 720 583.66 720 584 C727.928 583.428 735.546 581.976 743.309 580.305 C745.249 579.894 747.19 579.483 749.13 579.073 C751.17 578.64 753.21 578.205 755.249 577.769 C759.48 576.865 763.713 575.969 767.947 575.075 C768.647 574.927 769.348 574.779 770.07 574.627 C771.478 574.33 772.885 574.033 774.293 573.736 C776.384 573.294 778.474 572.852 780.565 572.41 C807.888 566.635 835.297 561.395 862.761 556.337 C870.511 554.908 878.256 553.458 886 552 C886 551.67 886 551.34 886 551 C882.052 550.949 878.23 551.113 874.306 551.547 Z M683 566 C682.185 566.185 681.371 566.37 680.531 566.561 C643.226 575.046 606.42 585.036 569.844 596.25 C569.08 596.484 568.316 596.718 567.529 596.959 C562.327 598.563 557.158 600.259 552 602 C555.769 603.105 557.965 602.689 561.75 601.562 C562.735 601.275 563.72 600.988 564.734 600.691 C565.108 600.577 565.108 600.577 567 600 C564.289 602.971 561.868 603.882 558 605 C562.386 606.35 565.825 605.262 570.137 604.078 C570.95 603.863 571.764 603.647 572.602 603.426 C575.3 602.709 577.994 601.98 580.688 601.25 C582.599 600.74 584.511 600.232 586.422 599.724 C594.764 597.503 603.096 595.247 611.427 592.986 C615.409 591.905 619.392 590.827 623.375 589.75 C624.185 589.531 624.994 589.311 625.828 589.085 C641.534 584.838 657.313 580.901 673.104 576.986 C691.426 572.442 709.729 567.855 727.938 562.875 C728.736 562.659 729.535 562.443 730.357 562.22 C739.745 559.671 749.12 557.037 758 553 C758 552.67 758 552.34 758 552 C733.582 551.452 706.678 560.598 683 566 Z M1111 559 C1034.994 569.513 959.828 581.788 885 599 C885.33 599.66 885.66 600.32 886 601 C889.027 601.586 891.993 602.046 895.047 602.438 C895.969 602.563 896.891 602.689 897.841 602.818 C900.81 603.221 903.78 603.611 906.75 604 C909.67 604.391 912.589 604.785 915.508 605.179 C917.404 605.434 919.3 605.687 921.196 605.938 C927.173 606.734 933.12 607.623 939.06 608.668 C947.72 609.646 954.369 608.31 962.617 605.52 C963.731 605.155 964.844 604.791 965.991 604.416 C968.38 603.633 970.767 602.844 973.153 602.05 C976.922 600.797 980.697 599.559 984.475 598.328 C985.107 598.122 985.739 597.916 986.391 597.704 C987.67 597.287 988.949 596.87 990.228 596.454 C992.151 595.827 994.074 595.199 995.997 594.571 C1007.127 590.94 1018.292 587.441 1029.5 584.062 C1030.359 583.804 1031.217 583.545 1032.102 583.278 C1050.613 577.712 1069.246 572.599 1087.907 567.566 C1092.136 566.423 1096.361 565.265 1100.587 564.109 C1104.39 563.069 1108.195 562.034 1112 561 C1111.67 560.34 1111.34 559.68 1111 559 Z M990 603 C990 603.33 990 603.66 990 604 C992.354 604.027 994.708 604.047 997.062 604.062 C997.718 604.068 997.718 604.068 1001.035 604.098 C1004.816 604.005 1008.279 603.614 1012 603 C1004.699 598.133 997.773 600.471 990 603 Z M1032 600 C1036 601 1036 601 1036 601 Z M479.109 604.66 C478.06 605.076 477.01 605.492 475.929 605.92 C472.526 607.276 469.138 608.668 465.75 610.062 C463.415 611.004 461.079 611.944 458.743 612.883 C443.005 619.234 427.346 625.746 412 633 C410.842 633.547 409.685 634.094 408.492 634.658 C401.307 638.063 394.145 641.512 387 645 C390.449 646.15 391.148 645.856 394.469 644.691 C395.409 644.365 396.35 644.039 397.319 643.702 C398.369 643.326 399.419 642.95 400.5 642.562 C401.624 642.166 402.749 641.77 403.907 641.362 C416.743 636.802 429.505 632.032 442.259 627.248 C451.558 623.761 460.866 620.312 470.215 616.961 C472.858 616.008 475.502 615.054 478.145 614.1 C479.834 613.494 481.525 612.892 483.218 612.295 C485.549 611.473 487.875 610.635 490.199 609.793 C490.547 609.673 490.547 609.673 492.304 609.066 C494.194 608.372 494.194 608.372 497 607 C497 606.01 497 605.02 497 604 C490.456 599.552 485.976 601.793 479.109 604.66 Z M813 621 C817 622 817 622 817 622 Z M767 630 C771 631 771 631 771 631 Z M613 632 C613.99 633.32 614.98 634.64 616 636 C617.32 634.35 618.64 632.7 620 631 C617.572 631 615.371 631.501 613 632 Z M606 633 C606 633.33 606 633.66 606 634 C607.65 634 609.3 634 611 634 C611 633.67 611 633.34 611 633 C609.35 633 607.7 633 606 633 Z M601 634 C605 635 605 635 605 635 Z M595 635 C599 636 599 636 599 636 Z M584 637 C588 638 588 638 588 638 Z M733 637 C737 638 737 638 737 638 Z M579 638 C583 639 583 639 583 639 Z M728 638 C732 639 732 639 732 639 Z M573 639 C577 640 577 640 577 640 Z M568 640 C572 641 572 641 572 641 Z M701 644 C705 645 705 645 705 645 Z M543 645 C547 646 547 646 547 646 Z M315 676 C315 676.33 315 676.66 315 677 C317.375 677.188 317.375 677.188 320 677 C320.66 676.01 321.32 675.02 322 674 C319.333 674 317.415 674.919 315 676 Z " fill="#000000" transform="translate(0,0)"/>
<path d="M0 0 C-0.713 2.447 -0.713 2.447 -2 5 C-4.038 5.716 -4.038 5.716 -6.599 5.847 C-7.569 5.908 -8.539 5.97 -9.539 6.033 C-10.073 6.054 -10.073 6.054 -12.779 6.163 C-13.903 6.227 -15.028 6.291 -16.186 6.357 C-19.934 6.566 -23.683 6.74 -27.434 6.914 C-30.06 7.054 -32.686 7.197 -35.312 7.342 C-41.559 7.683 -47.807 8 -54.056 8.308 C-65.766 8.886 -77.473 9.515 -89.18 10.139 C-91.848 10.281 -94.516 10.422 -97.184 10.561 C-116.402 11.568 -135.556 12.854 -154.711 14.698 C-159.068 15.098 -163.428 15.422 -167.792 15.733 C-187.216 17.167 -207.073 20.482 -222 34 C-222.601 34.509 -223.201 35.018 -223.82 35.543 C-242.301 52.324 -247.795 82.139 -255 105 C-251.095 106.302 -247.64 105.8 -243.613 105.441 C-242.796 105.373 -241.979 105.305 -241.137 105.235 C-238.529 105.017 -235.921 104.79 -233.312 104.562 C-231.544 104.413 -229.775 104.264 -228.006 104.115 C-223.67 103.75 -219.335 103.377 -215 103 C-215.96 111.533 -215.96 111.533 -217.27 115.156 C-217.517 115.861 -217.764 116.566 -218.019 117.292 C-218.281 118.021 -218.543 118.749 -218.812 119.5 C-228.144 146.424 -228.144 146.424 -226.188 154.25 C-223.231 157.967 -220.646 158.107 -216.082 158.773 C-215.395 158.848 -214.708 158.923 -214 159 C-214 159.33 -214 159.66 -214 160 C-214.75 159.907 -215.5 159.814 -216.273 159.719 C-222.644 159.269 -226.394 159.642 -231.438 163.75 C-232.972 165.152 -234.493 166.569 -236 168 C-238.66 170.328 -238.66 170.328 -241 172 C-241.66 171.67 -242.32 171.34 -243 171 C-243.255 171.722 -243.51 172.444 -243.773 173.188 C-245.468 177.074 -247.972 180.148 -250.539 183.5 C-252 186 -252 186 -252 191 C-248.7 191.33 -245.4 191.66 -242 192 C-242 192.33 -242 192.66 -242 193 C-263.889 195.056 -263.889 195.056 -273.5 190.25 C-277.14 186.974 -279.452 183.645 -281 179 C-281.308 173.143 -280.583 168.365 -278.91 162.773 C-278.687 162 -278.464 161.227 -278.233 160.43 C-275.504 151.098 -272.479 141.859 -269.438 132.625 C-268.821 130.745 -268.204 128.866 -267.587 126.986 C-266.335 123.171 -265.079 119.357 -263.822 115.543 C-262.377 111.155 -260.946 106.762 -259.522 102.367 C-244.69 56.632 -244.69 56.632 -233 40 C-232.762 39.66 -232.762 39.66 -231.555 37.941 C-220.335 23.548 -200.836 16.105 -183.358 13.446 C-173.542 12.231 -163.734 11.347 -153.871 10.633 C-152.25 10.512 -150.629 10.392 -149.008 10.271 C-144.706 9.95 -140.404 9.635 -136.102 9.32 C-131.61 8.991 -127.118 8.657 -122.627 8.323 C-106.641 7.137 -90.653 5.971 -74.664 4.824 C-73.447 4.737 -72.23 4.65 -70.976 4.559 C-69.796 4.475 -68.617 4.39 -67.402 4.303 C-66.26 4.221 -65.119 4.139 -63.943 4.055 C-61.7 3.894 -59.458 3.734 -57.215 3.574 C-42.187 2.501 -27.178 1.306 -12.19 -0.225 C-10.998 -0.343 -9.806 -0.461 -8.578 -0.582 C-7.561 -0.687 -6.545 -0.793 -5.497 -0.902 C-3 -1 -3 -1 0 0 Z " fill="#000000" transform="translate(1185,325)"/>
<path d="M0 0 C0.66 0.33 1.32 0.66 2 1 C-2.199 8.225 -6.263 14.806 -12.141 20.805 C-14 23 -14 23 -14.78 24.763 C-15.687 26.808 -16.491 28.341 -18 30 C-21.212 31.148 -24.36 31.295 -27.75 31.438 C-28.194 31.469 -28.194 31.469 -30.441 31.631 C-32.627 31.784 -34.811 31.906 -37 32 C-37 31.34 -37 30.68 -37 30 C-34.945 28.555 -34.945 28.555 -32.125 26.875 C-20.251 19.499 -9.769 9.973 0 0 Z " fill="#000000" transform="translate(1177,335)"/>
<path d="M0 0 C0.75 2.062 0.75 2.062 1 4 C0.27 4.14 -0.459 4.28 -1.211 4.424 C-4.808 5.114 -8.404 5.807 -12 6.5 C-12.673 6.63 -13.346 6.759 -14.039 6.892 C-22.906 8.601 -31.764 10.348 -40.613 12.145 C-41.503 12.325 -42.393 12.505 -43.31 12.69 C-50.478 14.141 -50.478 14.141 -53.916 14.847 C-62.598 16.63 -71.141 18.377 -80 19 C-80 17.68 -80 16.36 -80 15 C-73.093 13.503 -66.182 12.02 -59.269 10.549 C-54.855 9.609 -50.441 8.666 -46.027 7.718 C-40.612 6.556 -35.195 5.405 -29.777 4.258 C-27.592 3.794 -25.407 3.327 -23.223 2.857 C-20.119 2.189 -17.013 1.533 -13.906 0.879 C-12.966 0.674 -12.025 0.469 -11.056 0.258 C-10.185 0.077 -9.314 -0.104 -8.416 -0.291 C-7.657 -0.453 -6.897 -0.614 -6.115 -0.781 C-3.778 -1.023 -2.194 -0.834 0 0 Z " fill="#000000" transform="translate(743,372)"/>
<path d="M0 0 C2.171 6.115 -1.716 12.147 -4.219 17.707 C-8.296 25.803 -13.933 32.35 -20 39 C-20.782 39.866 -21.565 40.733 -22.371 41.625 C-27.286 46.796 -32.637 51.204 -38.312 55.5 C-38.995 56.017 -39.677 56.534 -40.38 57.067 C-43.798 59.591 -46.912 61.672 -51 63 C-47.883 59.79 -44.678 56.822 -41.243 53.956 C-28.378 43.211 -17.721 32.376 -9 18 C-8.646 17.428 -8.293 16.855 -7.929 16.266 C-4.651 10.947 -1.832 5.998 0 0 Z " fill="#000000" transform="translate(620,398)"/>
<path d="M0 0 C0.33 0.165 0.33 0.165 2 1 C0.989 1.825 -0.021 2.65 -1.062 3.5 C-3.686 5.744 -5.99 8.05 -8.215 10.688 C-12.763 15.953 -17.722 20.772 -22.684 25.645 C-26.069 28.993 -29.364 32.357 -32.469 35.969 C-37.119 41.374 -42.247 46.293 -47.328 51.289 C-52.11 56.022 -56.628 60.888 -61 66 C-64.95 70.448 -68.932 74.866 -72.996 79.211 C-78.648 85.259 -84.094 91.314 -89 98 C-89.99 97.67 -90.98 97.34 -92 97 C-93.12 94.751 -94.042 92.605 -94.918 90.262 C-95.18 89.585 -95.442 88.907 -95.712 88.21 C-96.265 86.775 -96.812 85.338 -97.353 83.9 C-98.182 81.702 -99.03 79.512 -99.881 77.322 C-100.415 75.928 -100.948 74.532 -101.48 73.137 C-101.734 72.482 -101.987 71.828 -102.247 71.154 C-103.486 67.838 -104 65.604 -104 62 C-101.703 60.238 -101.703 60.238 -98.25 58.312 C-96.861 57.519 -95.473 56.723 -94.086 55.926 C-93.289 55.472 -92.492 55.017 -91.671 54.549 C-86.949 51.81 -82.308 48.937 -77.652 46.087 C-63.585 37.485 -49.377 29.134 -35.134 20.829 C-30.96 18.393 -26.791 15.949 -22.625 13.5 C-22.3 13.31 -22.3 13.31 -20.655 12.347 C-17.319 10.388 -14.007 8.396 -10.715 6.363 C-10.366 6.149 -10.366 6.149 -8.601 5.066 C-7.277 4.252 -5.956 3.431 -4.641 2.602 C-3.13 1.674 -1.568 0.828 0 0 Z " fill="#000000" transform="translate(838,409)"/>
<path d="M0 0 C-0.666 3.968 -1.856 7.486 -3.328 11.227 C-3.799 12.424 -4.269 13.622 -4.754 14.855 C-4.877 15.166 -4.877 15.166 -5.5 16.736 C-6.239 18.597 -6.969 20.46 -7.699 22.324 C-9.839 27.745 -12.015 33.118 -14.484 38.398 C-16.79 43.377 -18.719 48.467 -20.617 53.61 C-23.36 61.024 -26.283 68.36 -29.269 75.678 C-29.892 77.209 -30.509 78.742 -31.122 80.277 C-32.022 82.532 -32.937 84.78 -33.855 87.027 C-33.991 87.372 -33.991 87.372 -34.679 89.113 C-35.37 90.779 -36.176 92.396 -37 94 C-39.976 94.992 -42.399 95.287 -45.516 95.535 C-46.602 95.622 -47.689 95.709 -48.809 95.799 C-49.944 95.886 -51.08 95.973 -52.25 96.062 C-52.81 96.108 -52.81 96.108 -55.645 96.338 C-61.112 96.767 -66.515 97.119 -72 97 C-73.757 92.026 -75.326 87.258 -76 82 C-78.694 84.591 -81.057 87.074 -83.35 90.041 C-87.973 96.005 -91.475 99.648 -99.281 100.723 C-102.022 100.931 -104.753 101.003 -107.5 101.062 C-108.98 101.136 -110.46 101.216 -111.94 101.302 C-115.036 101.477 -118.132 101.625 -121.231 101.757 C-126.041 101.98 -130.827 102.377 -135.621 102.82 C-136.405 102.893 -137.19 102.965 -137.998 103.039 C-139.553 103.184 -141.109 103.329 -142.665 103.475 C-152.448 104.39 -162.16 105.247 -172 105 C-169.336 103.224 -166.789 102.055 -163.851 100.826 C-160.96 99.536 -158.284 97.923 -155.562 96.312 C-149.042 92.508 -142.366 89.093 -135.594 85.762 C-134.989 85.464 -134.385 85.166 -133.762 84.859 C-132.066 84.032 -130.359 83.229 -128.652 82.426 C-125.489 80.725 -124.396 79.284 -123 76 C-123.33 75.01 -123.66 74.02 -124 73 C-126.285 72.488 -126.285 72.488 -129.062 72.312 C-129.982 72.247 -130.901 72.181 -131.848 72.113 C-132.558 72.076 -133.268 72.039 -134 72 C-134 71.67 -134 71.34 -134 71 C-133.27 70.917 -132.539 70.833 -131.787 70.748 C-124.9 69.961 -118.014 69.167 -111.129 68.366 C-107.59 67.954 -104.05 67.544 -100.509 67.142 C-96.437 66.678 -92.367 66.203 -88.297 65.727 C-87.027 65.584 -85.757 65.441 -84.449 65.294 C-83.268 65.154 -82.087 65.014 -80.87 64.87 C-79.831 64.75 -78.792 64.63 -77.721 64.506 C-75.093 64.017 -73.255 63.417 -71 62 C-69.641 59.765 -68.614 57.476 -67.539 55.094 C-64.968 51.596 -61.055 51.204 -56.932 50.406 C-55.874 50.249 -54.816 50.092 -53.727 49.93 C-52.573 49.756 -51.419 49.582 -50.23 49.402 C-49.041 49.228 -47.851 49.054 -46.625 48.875 C-45.412 48.693 -44.199 48.511 -42.949 48.324 C-39.967 47.878 -36.984 47.437 -34 47 C-34.831 47.035 -35.663 47.07 -36.52 47.105 C-37.063 47.119 -37.063 47.119 -39.812 47.188 C-40.891 47.222 -41.97 47.257 -43.082 47.293 C-46 47 -46 47 -47.84 45.648 C-49.375 43.468 -49.73 41.635 -50 39 C-49.835 38.67 -49.835 38.67 -49 37 C-49.66 36.67 -50.32 36.34 -51 36 C-52.575 33.374 -53 32.129 -53 29 C-52.34 29 -51.68 29 -51 29 C-51.036 28.374 -51.036 28.374 -51.219 25.203 C-51.313 23.552 -51.406 21.901 -51.5 20.25 C-51.524 19.837 -51.524 19.837 -51.645 17.75 C-51.667 17.35 -51.667 17.35 -51.781 15.328 C-51.823 14.595 -51.865 13.862 -51.908 13.106 C-51.997 11.073 -52 9.036 -52 7 C-54.97 6.67 -57.94 6.34 -61 6 C-61 5.67 -61 5.34 -61 5 C-48.424 3.25 -35.851 2.237 -23.188 1.375 C-21.262 1.24 -19.337 1.105 -17.412 0.969 C-15.581 0.841 -13.749 0.713 -11.918 0.586 C-11.491 0.556 -11.491 0.556 -9.333 0.406 C-6.216 0.194 -3.125 0 0 0 Z " fill="#000000" transform="translate(1161,409)"/>
<path d="M0 0 C0.165 0.33 0.165 0.33 1 2 C-9.141 20.028 -28.546 30.959 -46 40.812 C-46.772 41.251 -47.543 41.69 -48.338 42.143 C-50.19 43.162 -52.092 44.091 -54 45 C-54.66 44.67 -55.32 44.34 -56 44 C-55.521 43.709 -55.521 43.709 -53.098 42.234 C-11.271 16.576 -11.271 16.576 0 0 Z " fill="#000000" transform="translate(557,422)"/>
<path d="M0 0 C-0.776 0.522 -1.552 1.044 -2.352 1.582 C-9.21 6.255 -15.828 11.097 -22.241 16.368 C-25.36 18.89 -28.176 20.751 -32 22 C-32.99 19.03 -33.98 16.06 -35 13 C-28.209 9.455 -21.231 6.539 -14.125 3.688 C-13.555 3.454 -13.555 3.454 -10.672 2.271 C-9.586 1.835 -8.501 1.399 -7.383 0.949 C-6.397 0.55 -5.411 0.152 -4.395 -0.259 C-2 -1 -2 -1 0 0 Z " fill="#000000" transform="translate(763,445)"/>
<path d="M0 0 C1.088 3.27 0.904 5.159 -0.18 8.406 C-0.449 9.233 -0.719 10.059 -0.996 10.91 C-1.286 11.765 -1.576 12.619 -1.875 13.5 C-2.436 15.198 -2.996 16.896 -3.555 18.594 C-3.807 19.343 -4.06 20.093 -4.32 20.865 C-4.967 22.896 -5.508 24.927 -6 27 C-5.456 26.88 -4.912 26.761 -4.351 26.637 C2.821 25.126 10.032 24.093 17.297 23.14 C19.327 22.873 21.356 22.599 23.385 22.324 C24.677 22.153 25.969 21.981 27.301 21.805 C28.468 21.65 29.635 21.495 30.837 21.335 C33.593 21.043 36.233 20.933 39 21 C37.203 29.041 34.822 36.804 32.158 44.591 C30.64 49.031 29.258 53.477 28 58 C27.154 60.961 26.297 63.918 25.438 66.875 C25.216 67.646 24.995 68.417 24.768 69.211 C23.114 74.886 23.114 74.886 22 76 C19.13 76.304 16.276 76.549 13.398 76.754 C12.529 76.819 11.659 76.884 10.763 76.951 C8.915 77.089 7.067 77.224 5.219 77.357 C2.407 77.56 -0.404 77.771 -3.215 77.982 C-5.01 78.115 -6.806 78.247 -8.602 78.379 C-9.437 78.441 -10.273 78.504 -11.134 78.568 C-15.771 78.899 -20.352 79.062 -25 79 C-23.851 69.316 -21.11 60.376 -18.052 51.166 C-17.257 48.771 -16.475 46.372 -15.695 43.973 C-12.796 35.106 -9.702 26.337 -6.374 17.622 C-4.158 11.78 -2.08 5.891 0 0 Z M11.516 57.605 C10.782 57.886 10.048 58.166 9.292 58.455 C7.737 59.052 6.184 59.653 4.632 60.259 C2.277 61.177 -0.083 62.079 -2.445 62.979 C-3.959 63.562 -5.472 64.146 -6.984 64.73 C-7.333 64.864 -7.333 64.864 -9.1 65.539 C-13.664 67.331 -17.792 69.481 -22 72 C-21.67 73.32 -21.34 74.64 -21 76 C-20.34 75.01 -19.68 74.02 -19 73 C-13.533 69.905 -7.812 67.715 -1.941 65.504 C3.004 63.633 7.906 61.656 12.812 59.688 C13.715 59.326 14.618 58.964 15.548 58.591 C17.699 57.728 19.85 56.864 22 56 C17.918 54.639 15.343 56.105 11.516 57.605 Z " fill="#000000" transform="translate(838,452)"/>
<path d="M0 0 C1.296 3.887 0.128 6.055 -1.312 9.688 C-1.573 10.365 -1.834 11.043 -2.102 11.741 C-5.158 19.591 -8.45 27.35 -11.747 35.1 C-11.958 35.598 -11.958 35.598 -13.023 38.117 C-13.404 39.01 -13.785 39.904 -14.177 40.824 C-15 43 -15 43 -15 45 C-8.54 42.617 -2.081 40.232 4.379 37.847 C6.576 37.036 8.772 36.225 10.969 35.414 C14.13 34.248 17.289 33.081 20.449 31.914 C21.43 31.553 22.41 31.191 23.42 30.819 C24.341 30.478 25.261 30.138 26.21 29.788 C27.016 29.49 27.822 29.192 28.652 28.886 C31.115 27.956 33.559 26.985 36 26 C35.368 30.055 34.059 33.333 32.297 37.031 C31.735 38.22 31.173 39.409 30.594 40.634 C30.294 41.263 29.994 41.893 29.684 42.541 C28.082 45.902 26.498 49.271 24.914 52.641 C24.588 53.333 24.262 54.026 23.926 54.739 C20.576 61.872 17.337 69.054 14.125 76.25 C13.587 77.454 13.049 78.659 12.495 79.899 C10.995 83.265 9.497 86.632 8 90 C7.184 91.833 6.367 93.667 5.551 95.5 C4.26 98.4 2.97 101.301 1.684 104.203 C1.54 104.51 1.54 104.51 0.812 106.062 C0 108 0 108 -0.569 110.254 C-1.844 114.498 -3.104 116.475 -6.991 118.754 C-10.946 120.539 -15.031 121.949 -19.125 123.375 C-20.609 123.919 -22.092 124.467 -23.573 125.019 C-25.832 125.86 -28.091 126.699 -30.354 127.526 C-37.619 130.186 -44.713 133.178 -51.812 136.25 C-53.901 137.153 -55.991 138.055 -58.082 138.953 C-58.511 139.14 -58.511 139.14 -60.683 140.083 C-62.781 140.913 -64.8 141.516 -67 142 C-65.391 136.638 -63.066 131.768 -60.625 126.75 C-57.138 119.512 -53.712 112.25 -50.367 104.945 C-49.331 102.69 -48.284 100.44 -47.228 98.194 C-42.968 89.123 -42.968 89.123 -41.492 84.695 C-37.122 72.947 -26.835 69.123 -16.289 63.734 C-10.601 60.735 -5.123 57.394 0.375 54.062 C1.402 53.448 2.428 52.833 3.486 52.199 C9.434 48.622 15.266 44.912 21 41 C-1.884 50.44 -1.884 50.44 -13.188 55.438 C-13.91 55.755 -14.632 56.072 -15.376 56.398 C-18.319 57.71 -21.081 59.052 -23.801 60.785 C-24.527 61.186 -25.252 61.587 -26 62 C-26.99 61.67 -27.98 61.34 -29 61 C-28.158 59.12 -27.315 57.24 -26.473 55.359 C-26.208 54.77 -25.944 54.18 -25.672 53.572 C-24.205 50.299 -22.738 47.026 -21.269 43.754 C-18.617 37.844 -15.966 31.932 -13.344 26.008 C-3.244 3.244 -3.244 3.244 0 0 Z " fill="#000000" transform="translate(396,469)"/>
<path d="M0 0 C2.297 2.039 2.297 2.039 4.75 4.625 C7.654 7.67 10.574 10.534 13.766 13.277 C18.398 17.283 22.696 21.585 27 25.938 C27.775 26.717 28.549 27.496 29.348 28.299 C31.234 30.197 33.118 32.097 35 34 C34.01 34 33.02 34 32 34 C31.67 33.67 31.34 33.34 31 33 C23.363 32.135 17.843 34.831 11 38 C9.862 38.504 8.724 39.008 7.551 39.527 C-5.275 45.275 -5.275 45.275 -9.75 49.75 C-10.163 50.163 -10.575 50.575 -11 51 C-11.66 51 -12.32 51 -13 51 C-13.33 53.97 -13.66 56.94 -14 60 C-13.278 60.268 -12.556 60.536 -11.812 60.812 C-9 62 -9 62 -6.688 63.688 C-2.903 65.536 -0.018 64.863 4 64 C4.631 63.779 5.262 63.559 5.911 63.332 C8 63 8 63 9.708 63.88 C10.26 64.34 10.813 64.8 11.383 65.273 C11.993 65.768 12.602 66.263 13.23 66.773 C13.856 67.302 14.481 67.83 15.125 68.375 C16.377 69.405 17.629 70.434 18.883 71.461 C19.433 71.923 19.984 72.385 20.551 72.861 C22 74 22 74 24 75 C24 75.66 24 76.32 24 77 C21.106 77.841 18.21 78.673 15.312 79.5 C14.904 79.619 14.904 79.619 12.838 80.223 C3.964 82.737 3.964 82.737 1 82 C-1.528 79.972 -3.616 77.618 -5.75 75.188 C-6.37 74.502 -6.99 73.816 -7.628 73.11 C-11.83 68.427 -15.886 63.634 -19.809 58.715 C-21.782 56.27 -23.817 53.893 -25.878 51.522 C-33.165 43.106 -39.624 34.118 -46 25 C-46.209 24.709 -46.209 24.709 -47.266 23.238 C-50 19.343 -50 19.343 -50 16 C-47.581 14.794 -45.284 13.849 -42.75 12.938 C-41.974 12.649 -41.198 12.36 -40.398 12.062 C-38.626 11.407 -36.852 10.759 -35.075 10.117 C-32.246 9.089 -29.424 8.042 -26.604 6.99 C-24.077 6.049 -21.547 5.12 -19.016 4.194 C-17.141 3.506 -15.269 2.809 -13.397 2.113 C-12.238 1.694 -11.078 1.275 -9.883 0.844 C-8.845 0.464 -7.808 0.084 -6.739 -0.307 C-3.919 -1.021 -2.652 -1.109 0 0 Z " fill="#000000" transform="translate(526,508)"/>
<path d="M0 0 C-0.317 1.467 -0.68 2.924 -1.062 4.375 C-1.26 5.187 -1.457 5.999 -1.66 6.836 C-3 9 -3 9 -5.828 10.121 C-7.214 10.435 -8.606 10.724 -10 11 C-10.94 11.209 -11.881 11.417 -12.849 11.632 C-16.123 12.349 -19.403 13.022 -22.688 13.688 C-23.815 13.925 -24.942 14.163 -26.104 14.408 C-27.187 14.628 -28.27 14.848 -29.387 15.074 C-30.369 15.276 -31.35 15.478 -32.362 15.686 C-34.939 15.993 -36.565 15.824 -39 15 C-33.181 10.366 -26.385 8.598 -19.375 6.375 C-16.944 5.594 -14.515 4.81 -12.086 4.023 C-11.014 3.682 -9.942 3.341 -8.837 2.99 C-0.266 0 -0.266 0 0 0 Z " fill="#000000" transform="translate(662,540)"/>
</svg>
